<?xml version="1.0" encoding="utf-8" standalone="no"?>
<!DOCTYPE svg PUBLIC "-//W3C//DTD SVG 1.1//EN"
  "http://www.w3.org/Graphics/SVG/1.1/DTD/svg11.dtd">
<svg xmlns:xlink="http://www.w3.org/1999/xlink" width="792.116238pt" height="352.8pt" viewBox="0 0 792.116238 352.8" xmlns="http://www.w3.org/2000/svg" version="1.1">
 <metadata>
  <rdf:RDF xmlns:dc="http://purl.org/dc/elements/1.1/" xmlns:cc="http://creativecommons.org/ns#" xmlns:rdf="http://www.w3.org/1999/02/22-rdf-syntax-ns#">
   <cc:Work>
    <dc:type rdf:resource="http://purl.org/dc/dcmitype/StillImage"/>
    <dc:date>2025-10-21T23:01:32.949690</dc:date>
    <dc:format>image/svg+xml</dc:format>
    <dc:creator>
     <cc:Agent>
      <dc:title>Matplotlib v3.10.3, https://matplotlib.org/</dc:title>
     </cc:Agent>
    </dc:creator>
   </cc:Work>
  </rdf:RDF>
 </metadata>
 <defs>
  <style type="text/css">*{stroke-linejoin: round; stroke-linecap: butt}</style>
 </defs>
 <g id="figure_1">
  <g id="patch_1">
   <path d="M 0 352.8 
L 792.116238 352.8 
L 792.116238 0 
L 0 0 
z
" style="fill: #ffffff"/>
  </g>
  <g id="axes_1">
   <g id="patch_2">
    <path d="M 58.42592 158.936602 
L 784.916238 158.936602 
L 784.916238 7.2 
L 58.42592 7.2 
z
" style="fill: #ffffff"/>
   </g>
   <g id="matplotlib.axis_1">
    <g id="xtick_1">
     <g id="line2d_1">
      <defs>
       <path id="m97f5e96795" d="M 0 0 
L 0 -8 
" style="stroke: #000000"/>
      </defs>
      <g>
       <use xlink:href="#m97f5e96795" x="58.42592" y="158.936602" style="stroke: #000000"/>
      </g>
     </g>
    </g>
    <g id="xtick_2">
     <g id="line2d_2">
      <g>
       <use xlink:href="#m97f5e96795" x="203.869427" y="158.936602" style="stroke: #000000"/>
      </g>
     </g>
    </g>
    <g id="xtick_3">
     <g id="line2d_3">
      <g>
       <use xlink:href="#m97f5e96795" x="349.312934" y="158.936602" style="stroke: #000000"/>
      </g>
     </g>
    </g>
    <g id="xtick_4">
     <g id="line2d_4">
      <g>
       <use xlink:href="#m97f5e96795" x="494.756441" y="158.936602" style="stroke: #000000"/>
      </g>
     </g>
    </g>
    <g id="xtick_5">
     <g id="line2d_5">
      <g>
       <use xlink:href="#m97f5e96795" x="640.199948" y="158.936602" style="stroke: #000000"/>
      </g>
     </g>
    </g>
   </g>
   <g id="matplotlib.axis_2">
    <g id="ytick_1">
     <g id="line2d_6">
      <defs>
       <path id="m4f3c1b06d7" d="M 0 0 
L 8 0 
" style="stroke: #000000"/>
      </defs>
      <g>
       <use xlink:href="#m4f3c1b06d7" x="58.42592" y="152.095881" style="stroke: #000000"/>
      </g>
     </g>
     <g id="text_1">
      <!-- $\mathdefault{0.00}$ -->
      <g transform="translate(28.91263 157.284744) scale(0.15 -0.15)">
       <defs>
        <path id="CMR17-30" d="M 2688 2025 
C 2688 2416 2682 3080 2413 3591 
C 2176 4039 1798 4198 1466 4198 
C 1158 4198 768 4058 525 3597 
C 269 3118 243 2524 243 2025 
C 243 1661 250 1106 448 619 
C 723 -39 1216 -128 1466 -128 
C 1760 -128 2208 -7 2470 600 
C 2662 1042 2688 1559 2688 2025 
z
M 1466 -26 
C 1056 -26 813 325 723 812 
C 653 1188 653 1738 653 2096 
C 653 2588 653 2997 736 3387 
C 858 3929 1216 4096 1466 4096 
C 1728 4096 2067 3923 2189 3400 
C 2272 3036 2278 2607 2278 2096 
C 2278 1680 2278 1169 2202 792 
C 2067 95 1690 -26 1466 -26 
z
" transform="scale(0.015625)"/>
        <path id="CMMI12-3a" d="M 1178 307 
C 1178 492 1024 619 870 619 
C 685 619 557 466 557 313 
C 557 128 710 0 864 0 
C 1050 0 1178 153 1178 307 
z
" transform="scale(0.015625)"/>
       </defs>
       <use xlink:href="#CMR17-30" transform="scale(0.996264)"/>
       <use xlink:href="#CMMI12-3a" transform="translate(45.690477 0) scale(0.996264)"/>
       <use xlink:href="#CMR17-30" transform="translate(72.787654 0) scale(0.996264)"/>
       <use xlink:href="#CMR17-30" transform="translate(118.478131 0) scale(0.996264)"/>
      </g>
     </g>
    </g>
    <g id="ytick_2">
     <g id="line2d_7">
      <g>
       <use xlink:href="#m4f3c1b06d7" x="58.42592" y="117.595495" style="stroke: #000000"/>
      </g>
     </g>
     <g id="text_2">
      <!-- $\mathdefault{0.25}$ -->
      <g transform="translate(28.91263 122.784358) scale(0.15 -0.15)">
       <defs>
        <path id="CMR17-32" d="M 2669 989 
L 2554 989 
C 2490 536 2438 459 2413 420 
C 2381 369 1920 369 1830 369 
L 602 369 
C 832 619 1280 1072 1824 1597 
C 2214 1967 2669 2402 2669 3035 
C 2669 3790 2067 4224 1395 4224 
C 691 4224 262 3604 262 3030 
C 262 2780 448 2748 525 2748 
C 589 2748 781 2787 781 3010 
C 781 3207 614 3264 525 3264 
C 486 3264 448 3258 422 3245 
C 544 3790 915 4058 1306 4058 
C 1862 4058 2227 3617 2227 3035 
C 2227 2479 1901 2000 1536 1584 
L 262 146 
L 262 0 
L 2515 0 
L 2669 989 
z
" transform="scale(0.015625)"/>
        <path id="CMR17-35" d="M 730 3692 
C 794 3666 1056 3584 1325 3584 
C 1920 3584 2246 3911 2432 4100 
C 2432 4157 2432 4192 2394 4192 
C 2387 4192 2374 4192 2323 4163 
C 2099 4058 1837 3973 1517 3973 
C 1325 3973 1037 3999 723 4139 
C 653 4171 640 4171 634 4171 
C 602 4171 595 4164 595 4037 
L 595 2203 
C 595 2089 595 2057 659 2057 
C 691 2057 704 2070 736 2114 
C 941 2401 1222 2522 1542 2522 
C 1766 2522 2246 2382 2246 1289 
C 2246 1085 2246 715 2054 421 
C 1894 159 1645 25 1370 25 
C 947 25 518 320 403 814 
C 429 807 480 795 506 795 
C 589 795 749 840 749 1038 
C 749 1210 627 1280 506 1280 
C 358 1280 262 1190 262 1011 
C 262 454 704 -128 1382 -128 
C 2042 -128 2669 440 2669 1264 
C 2669 2030 2170 2624 1549 2624 
C 1222 2624 947 2503 730 2274 
L 730 3692 
z
" transform="scale(0.015625)"/>
       </defs>
       <use xlink:href="#CMR17-30" transform="scale(0.996264)"/>
       <use xlink:href="#CMMI12-3a" transform="translate(45.690477 0) scale(0.996264)"/>
       <use xlink:href="#CMR17-32" transform="translate(72.787654 0) scale(0.996264)"/>
       <use xlink:href="#CMR17-35" transform="translate(118.478131 0) scale(0.996264)"/>
      </g>
     </g>
    </g>
    <g id="ytick_3">
     <g id="line2d_8">
      <g>
       <use xlink:href="#m4f3c1b06d7" x="58.42592" y="83.09511" style="stroke: #000000"/>
      </g>
     </g>
     <g id="text_3">
      <!-- $\mathdefault{0.50}$ -->
      <g transform="translate(28.91263 88.283972) scale(0.15 -0.15)">
       <use xlink:href="#CMR17-30" transform="scale(0.996264)"/>
       <use xlink:href="#CMMI12-3a" transform="translate(45.690477 0) scale(0.996264)"/>
       <use xlink:href="#CMR17-35" transform="translate(72.787654 0) scale(0.996264)"/>
       <use xlink:href="#CMR17-30" transform="translate(118.478131 0) scale(0.996264)"/>
      </g>
     </g>
    </g>
    <g id="ytick_4">
     <g id="line2d_9">
      <g>
       <use xlink:href="#m4f3c1b06d7" x="58.42592" y="48.594724" style="stroke: #000000"/>
      </g>
     </g>
     <g id="text_4">
      <!-- $\mathdefault{0.75}$ -->
      <g transform="translate(28.91263 53.783586) scale(0.15 -0.15)">
       <defs>
        <path id="CMR17-37" d="M 2886 3941 
L 2886 4081 
L 1382 4081 
C 634 4081 621 4165 595 4288 
L 480 4288 
L 294 3094 
L 410 3094 
C 429 3215 474 3540 550 3661 
C 589 3712 1062 3712 1171 3712 
L 2579 3712 
L 1869 2661 
C 1395 1954 1069 999 1069 165 
C 1069 89 1069 -128 1299 -128 
C 1530 -128 1530 89 1530 171 
L 1530 465 
C 1530 1508 1709 2196 2003 2636 
L 2886 3941 
z
" transform="scale(0.015625)"/>
       </defs>
       <use xlink:href="#CMR17-30" transform="scale(0.996264)"/>
       <use xlink:href="#CMMI12-3a" transform="translate(45.690477 0) scale(0.996264)"/>
       <use xlink:href="#CMR17-37" transform="translate(72.787654 0) scale(0.996264)"/>
       <use xlink:href="#CMR17-35" transform="translate(118.478131 0) scale(0.996264)"/>
      </g>
     </g>
    </g>
    <g id="ytick_5">
     <g id="line2d_10">
      <g>
       <use xlink:href="#m4f3c1b06d7" x="58.42592" y="14.094338" style="stroke: #000000"/>
      </g>
     </g>
     <g id="text_5">
      <!-- $\mathdefault{1.00}$ -->
      <g transform="translate(28.91263 19.2832) scale(0.15 -0.15)">
       <defs>
        <path id="CMR17-31" d="M 1702 4058 
C 1702 4192 1696 4192 1606 4192 
C 1357 3916 979 3827 621 3827 
C 602 3827 570 3827 563 3808 
C 557 3795 557 3782 557 3648 
C 755 3648 1088 3686 1344 3839 
L 1344 461 
C 1344 236 1331 160 781 160 
L 589 160 
L 589 0 
C 896 0 1216 0 1523 0 
C 1830 0 2150 0 2458 0 
L 2458 160 
L 2266 160 
C 1715 160 1702 230 1702 458 
L 1702 4058 
z
" transform="scale(0.015625)"/>
       </defs>
       <use xlink:href="#CMR17-31" transform="scale(0.996264)"/>
       <use xlink:href="#CMMI12-3a" transform="translate(45.690477 0) scale(0.996264)"/>
       <use xlink:href="#CMR17-30" transform="translate(72.787654 0) scale(0.996264)"/>
       <use xlink:href="#CMR17-30" transform="translate(118.478131 0) scale(0.996264)"/>
      </g>
     </g>
    </g>
    <g id="text_6">
     <!-- Min Max Scaling -->
     <g transform="translate(21.036997 151.335781) rotate(-90) scale(0.2 -0.2)">
      <defs>
       <path id="CMR17-4d" d="M 1338 4224 
C 1299 4320 1293 4320 1158 4320 
L 339 4320 
L 339 4160 
C 781 4160 851 4160 851 3875 
L 851 610 
C 851 451 851 153 339 153 
L 339 -13 
C 486 0 755 0 915 0 
C 1075 0 1344 0 1491 -13 
L 1491 153 
C 979 153 979 451 979 610 
L 979 4135 
L 986 4135 
L 2490 89 
C 2515 25 2528 -13 2579 -13 
C 2630 -13 2643 25 2669 89 
L 4186 4166 
L 4192 4166 
L 4192 438 
C 4192 153 4122 153 3680 153 
L 3680 -13 
C 3853 0 4198 0 4384 0 
C 4570 0 4922 0 5094 -13 
L 5094 153 
C 4653 153 4582 153 4582 438 
L 4582 3875 
C 4582 4160 4653 4160 5094 4160 
L 5094 4320 
L 4282 4320 
C 4147 4320 4141 4314 4102 4218 
L 2720 502 
L 1338 4224 
z
" transform="scale(0.015625)"/>
       <path id="CMR17-69" d="M 992 3909 
C 992 4049 877 4170 730 4170 
C 589 4170 467 4056 467 3909 
C 467 3769 582 3648 730 3648 
C 870 3648 992 3763 992 3909 
z
M 243 2706 
L 243 2541 
C 602 2541 653 2502 653 2197 
L 653 427 
C 653 184 627 153 218 153 
L 218 -13 
C 371 0 646 0 806 0 
C 960 0 1222 0 1370 -13 
L 1370 153 
C 992 153 979 191 979 420 
L 979 2776 
L 243 2706 
z
" transform="scale(0.015625)"/>
       <path id="CMR17-6e" d="M 2656 1933 
C 2656 2259 2592 2790 1837 2790 
C 1331 2790 1069 2400 973 2144 
L 966 2144 
L 966 2790 
L 211 2720 
L 211 2554 
C 589 2554 646 2515 646 2208 
L 646 428 
C 646 184 621 153 211 153 
L 211 -13 
C 365 0 646 0 813 0 
C 979 0 1267 0 1421 -13 
L 1421 153 
C 1011 153 986 178 986 428 
L 986 1658 
C 986 2247 1344 2688 1792 2688 
C 2266 2688 2317 2266 2317 1958 
L 2317 428 
C 2317 184 2291 153 1882 153 
L 1882 -13 
C 2035 0 2317 0 2483 0 
C 2650 0 2938 0 3091 -13 
L 3091 153 
C 2682 153 2656 178 2656 428 
L 2656 1933 
z
" transform="scale(0.015625)"/>
       <path id="CMR17-61" d="M 2304 1653 
C 2304 2072 2304 2294 2035 2543 
C 1798 2752 1523 2816 1306 2816 
C 800 2816 435 2407 435 1971 
C 435 1728 627 1728 666 1728 
C 749 1728 896 1778 896 1954 
C 896 2112 774 2181 666 2181 
C 640 2181 608 2174 589 2168 
C 723 2592 1069 2714 1293 2714 
C 1613 2714 1965 2429 1965 1885 
L 1965 1600 
C 1587 1600 1133 1549 774 1357 
C 371 1133 256 813 256 570 
C 256 77 832 -64 1171 -64 
C 1523 -64 1850 139 1990 511 
C 2003 233 2182 -18 2464 -18 
C 2598 -18 2938 70 2938 567 
L 2938 920 
L 2822 920 
L 2822 562 
C 2822 178 2650 128 2566 128 
C 2304 128 2304 458 2304 738 
L 2304 1653 
z
M 1965 870 
C 1965 317 1568 38 1216 38 
C 896 38 646 275 646 570 
C 646 761 730 1100 1101 1305 
C 1408 1478 1760 1504 1965 1504 
L 1965 870 
z
" transform="scale(0.015625)"/>
       <path id="CMR17-78" d="M 1664 1477 
C 1856 1726 2074 2006 2253 2216 
C 2464 2458 2707 2560 2989 2560 
L 2989 2726 
C 2880 2726 2656 2726 2541 2726 
C 2368 2726 2170 2726 2022 2732 
L 2022 2566 
C 2112 2553 2163 2489 2163 2400 
C 2163 2285 2099 2215 2067 2171 
L 1594 1573 
L 1030 2306 
C 973 2376 973 2388 973 2420 
C 973 2497 1037 2560 1146 2560 
L 1146 2732 
C 992 2726 717 2726 557 2726 
C 384 2726 179 2726 38 2732 
L 38 2560 
C 384 2560 461 2534 614 2343 
L 1350 1395 
C 1363 1382 1395 1344 1395 1325 
C 1395 1299 838 619 768 530 
C 480 185 179 160 6 160 
L 6 0 
C 115 0 339 0 454 0 
C 582 0 864 0 979 -6 
L 979 160 
C 941 166 838 179 838 325 
C 838 440 890 510 947 586 
L 1478 1236 
L 2035 512 
C 2086 442 2163 346 2163 301 
C 2163 211 2086 160 1984 160 
L 1984 -6 
C 2138 0 2413 0 2573 0 
C 2746 0 2950 0 3091 -6 
L 3091 160 
C 2771 160 2675 172 2522 370 
L 1664 1477 
z
" transform="scale(0.015625)"/>
       <path id="CMR17-53" d="M 2803 4290 
C 2803 4404 2797 4411 2758 4411 
C 2720 4411 2707 4385 2682 4328 
L 2490 3907 
C 2246 4257 1875 4416 1472 4416 
C 819 4416 294 3901 294 3253 
C 294 3056 339 2776 557 2510 
C 794 2218 1018 2167 1530 2033 
C 1722 1982 2042 1899 2106 1874 
C 2470 1722 2662 1341 2662 985 
C 2662 527 2336 38 1779 38 
C 1094 38 454 419 410 1311 
C 403 1413 397 1419 352 1419 
C 301 1419 294 1413 294 1285 
L 294 -1 
C 294 -115 301 -122 339 -122 
C 384 -122 397 -90 486 108 
C 493 127 493 140 614 381 
C 934 -39 1472 -128 1779 -128 
C 2477 -128 2970 451 2970 1124 
C 2970 1454 2848 1708 2778 1823 
C 2509 2230 2221 2306 1914 2382 
C 1869 2402 1856 2402 1498 2490 
C 1152 2579 1005 2624 845 2796 
C 666 2992 602 3196 602 3399 
C 602 3812 934 4263 1478 4263 
C 2157 4263 2579 3786 2675 2993 
C 2694 2878 2701 2872 2746 2872 
C 2803 2872 2803 2891 2803 2999 
L 2803 4290 
z
" transform="scale(0.015625)"/>
       <path id="CMR17-63" d="M 2234 2240 
C 2112 2240 1933 2240 1933 2017 
C 1933 1838 2080 1787 2163 1787 
C 2208 1787 2394 1807 2394 2024 
C 2394 2467 1958 2803 1466 2803 
C 787 2803 211 2178 211 1363 
C 211 516 813 -64 1466 -64 
C 2259 -64 2458 677 2458 748 
C 2458 774 2451 793 2406 793 
C 2362 793 2355 787 2330 703 
C 2163 180 1798 51 1523 51 
C 1114 51 621 427 621 1369 
C 621 2338 1094 2688 1472 2688 
C 1722 2688 2093 2573 2234 2240 
z
" transform="scale(0.015625)"/>
       <path id="CMR17-6c" d="M 979 4396 
L 218 4326 
L 218 4160 
C 595 4160 653 4122 653 3817 
L 653 426 
C 653 184 627 153 218 153 
L 218 -13 
C 371 0 653 0 813 0 
C 979 0 1261 0 1414 -13 
L 1414 153 
C 1005 153 979 178 979 426 
L 979 4396 
z
" transform="scale(0.015625)"/>
       <path id="CMR17-67" d="M 710 1164 
C 832 1068 1043 960 1299 960 
C 1805 960 2240 1357 2240 1888 
C 2240 2054 2189 2310 1997 2509 
C 2176 2692 2438 2752 2586 2752 
C 2611 2752 2650 2752 2682 2734 
C 2656 2728 2598 2703 2598 2605 
C 2598 2527 2656 2471 2739 2471 
C 2835 2471 2886 2533 2886 2614 
C 2886 2731 2790 2854 2586 2854 
C 2330 2854 2106 2738 1926 2580 
C 1734 2753 1504 2816 1299 2816 
C 794 2816 358 2419 358 1888 
C 358 1522 570 1292 634 1228 
C 442 1004 442 743 442 711 
C 442 545 506 302 723 168 
C 390 85 128 -169 128 -486 
C 128 -943 736 -1280 1466 -1280 
C 2170 -1280 2803 -956 2803 -479 
C 2803 384 1856 384 1363 384 
C 1216 384 954 384 922 391 
C 723 423 589 602 589 826 
C 589 883 589 1024 710 1164 
z
M 1299 1068 
C 736 1068 736 1760 736 1889 
C 736 2016 736 2708 1299 2708 
C 1862 2708 1862 2016 1862 1889 
C 1862 1760 1862 1068 1299 1068 
z
M 1466 -1171 
C 826 -1171 384 -835 384 -486 
C 384 -289 493 -105 634 -4 
C 794 104 858 104 1293 104 
C 1818 104 2547 104 2547 -486 
C 2547 -835 2106 -1171 1466 -1171 
z
" transform="scale(0.015625)"/>
      </defs>
      <use xlink:href="#CMR17-4d" transform="scale(0.996264)"/>
      <use xlink:href="#CMR17-69" transform="translate(84.686941 0) scale(0.996264)"/>
      <use xlink:href="#CMR17-6e" transform="translate(109.557999 0) scale(0.996264)"/>
      <use xlink:href="#CMR17-4d" transform="translate(190.529335 0) scale(0.996264)"/>
      <use xlink:href="#CMR17-61" transform="translate(275.216276 0) scale(0.996264)"/>
      <use xlink:href="#CMR17-78" transform="translate(320.906753 0) scale(0.996264)"/>
      <use xlink:href="#CMR17-53" transform="translate(399.275635 0) scale(0.996264)"/>
      <use xlink:href="#CMR17-63" transform="translate(450.171005 0) scale(0.996264)"/>
      <use xlink:href="#CMR17-61" transform="translate(490.656665 0) scale(0.996264)"/>
      <use xlink:href="#CMR17-6c" transform="translate(536.347142 0) scale(0.996264)"/>
      <use xlink:href="#CMR17-69" transform="translate(561.218201 0) scale(0.996264)"/>
      <use xlink:href="#CMR17-6e" transform="translate(586.089259 0) scale(0.996264)"/>
      <use xlink:href="#CMR17-67" transform="translate(636.984629 0) scale(0.996264)"/>
     </g>
    </g>
   </g>
   <g id="line2d_11">
    <path d="M 58.42592 138.295727 
L 784.916238 138.295727 
L 784.916238 138.295727 
" clip-path="url(#p10007b494b)" style="fill: none; stroke: #000000; stroke-opacity: 0.15; stroke-linecap: square"/>
   </g>
   <g id="line2d_12">
    <path d="M 58.42592 110.695418 
L 784.916238 110.695418 
L 784.916238 110.695418 
" clip-path="url(#p10007b494b)" style="fill: none; stroke: #000000; stroke-opacity: 0.15; stroke-linecap: square"/>
   </g>
   <g id="line2d_13">
    <path d="M 58.42592 83.09511 
L 784.916238 83.09511 
L 784.916238 83.09511 
" clip-path="url(#p10007b494b)" style="fill: none; stroke: #000000; stroke-opacity: 0.15; stroke-linecap: square"/>
   </g>
   <g id="line2d_14">
    <path d="M 58.42592 55.494801 
L 784.916238 55.494801 
L 784.916238 55.494801 
" clip-path="url(#p10007b494b)" style="fill: none; stroke: #000000; stroke-opacity: 0.15; stroke-linecap: square"/>
   </g>
   <g id="line2d_15">
    <path d="M 58.42592 27.894492 
L 784.916238 27.894492 
L 784.916238 27.894492 
" clip-path="url(#p10007b494b)" style="fill: none; stroke: #000000; stroke-opacity: 0.15; stroke-linecap: square"/>
   </g>
   <g id="line2d_16">
    <path d="M 58.42592 99.16303 
L 59.153138 102.438277 
L 59.880355 104.698345 
L 60.607573 100.966367 
L 61.334791 113.630077 
L 62.062008 101.12169 
L 62.789226 112.507107 
L 63.516443 97.161281 
L 64.243661 92.146132 
L 64.970878 116.650147 
L 65.698096 103.387294 
L 66.425313 98.868679 
L 67.152531 117.224108 
L 67.879748 111.539422 
L 68.606966 116.661523 
L 69.334183 122.863277 
L 70.061401 111.840797 
L 70.788618 111.335071 
L 71.515836 118.588963 
L 72.243054 116.470127 
L 72.970271 103.83283 
L 74.424706 126.123993 
L 75.151924 121.861148 
L 76.606359 103.109756 
L 77.333576 122.098465 
L 78.060794 125.153127 
L 78.788011 118.219898 
L 79.515229 118.203052 
L 80.242446 127.351919 
L 80.969664 117.830359 
L 81.696881 116.682885 
L 82.424099 120.57438 
L 83.151317 121.065504 
L 83.878534 114.486199 
L 84.605752 122.493167 
L 85.332969 133.663784 
L 86.060187 110.951687 
L 86.787404 125.470508 
L 87.514622 120.7522 
L 88.241839 120.867041 
L 88.969057 118.621322 
L 89.696274 119.248883 
L 90.423492 135.34887 
L 91.150709 118.432715 
L 91.877927 120.128423 
L 92.605145 127.640991 
L 94.05958 127.743708 
L 94.786797 122.189548 
L 95.514015 131.528156 
L 96.241232 126.239766 
L 96.96845 120.029852 
L 97.695667 127.558168 
L 98.422885 122.703438 
L 99.150102 130.646634 
L 99.87732 135.27875 
L 100.604537 125.726515 
L 101.331755 129.38136 
L 102.058972 127.769593 
L 102.78619 136.240287 
L 103.513408 126.120438 
L 104.240625 133.152024 
L 104.967843 122.938974 
L 105.69506 130.647557 
L 106.422278 125.062505 
L 107.149495 136.128721 
L 107.876713 129.952171 
L 108.60393 122.364565 
L 109.331148 137.45148 
L 110.058365 131.707298 
L 110.785583 152.039483 
L 111.5128 141.666758 
L 112.240018 124.981504 
L 112.967235 143.848325 
L 113.694453 141.472251 
L 114.421671 126.373529 
L 115.148888 126.737488 
L 115.876106 135.371021 
L 116.603323 125.518744 
L 117.330541 130.908993 
L 118.057758 132.284543 
L 118.784976 128.295939 
L 119.512193 134.432047 
L 120.239411 127.96978 
L 120.966628 138.856367 
L 121.693846 117.372756 
L 122.421063 135.863195 
L 123.148281 129.682758 
L 123.875499 134.336086 
L 124.602716 132.667226 
L 125.329934 122.972031 
L 126.057151 129.614642 
L 126.784369 140.309401 
L 127.511586 126.045958 
L 128.238804 121.251101 
L 128.966021 148.208361 
L 129.693239 138.843057 
L 130.420456 121.581336 
L 131.147674 127.088309 
L 131.874891 131.082244 
L 132.602109 130.942313 
L 133.329326 128.457639 
L 134.056544 122.607617 
L 134.783762 119.70961 
L 135.510979 130.924246 
L 136.238197 124.110956 
L 136.965414 128.835694 
L 137.692632 129.512201 
L 138.419849 126.510196 
L 139.147067 133.579069 
L 139.874284 122.145749 
L 140.601502 119.875375 
L 141.328719 130.680482 
L 142.055937 124.261171 
L 142.783154 131.988366 
L 143.510372 129.243965 
L 144.23759 131.618236 
L 144.964807 134.51421 
L 145.692025 121.685563 
L 146.419242 122.820778 
L 147.14646 122.522491 
L 147.873677 125.317714 
L 148.600895 115.924853 
L 149.328112 122.505984 
L 150.05533 131.464941 
L 150.782547 118.508155 
L 151.509765 125.118226 
L 152.236982 129.60816 
L 152.9642 116.665274 
L 153.691417 125.542033 
L 154.418635 126.148018 
L 155.145853 126.937575 
L 155.87307 121.486491 
L 156.600288 110.659977 
L 157.327505 124.733899 
L 158.054723 110.668684 
L 158.78194 114.431269 
L 159.509158 120.430316 
L 160.236375 113.869493 
L 160.963593 115.318487 
L 161.69081 118.965119 
L 162.418028 118.46857 
L 163.145245 119.558278 
L 163.872463 104.192631 
L 164.59968 107.610829 
L 165.326898 120.142133 
L 166.054116 106.983085 
L 166.781333 118.326503 
L 167.508551 108.442624 
L 168.235768 108.746533 
L 168.962986 117.448764 
L 169.690203 105.648016 
L 170.417421 111.719532 
L 171.144638 103.111504 
L 171.871856 111.369355 
L 172.599073 106.202869 
L 173.326291 119.115893 
L 174.053508 111.616063 
L 174.780726 109.520597 
L 175.507944 100.371558 
L 176.235161 103.506881 
L 176.962379 109.287395 
L 177.689596 103.681862 
L 178.416814 100.400553 
L 179.144031 95.806791 
L 179.871249 110.055783 
L 180.598466 96.264052 
L 181.325684 106.188853 
L 182.052901 103.641475 
L 182.780119 86.967287 
L 183.507336 93.925513 
L 184.234554 93.799839 
L 184.961771 95.824582 
L 185.688989 92.876033 
L 186.416207 82.854998 
L 187.143424 93.886779 
L 187.870642 90.963453 
L 188.597859 101.204871 
L 189.325077 91.857963 
L 190.052294 85.678186 
L 190.779512 98.851085 
L 192.233947 88.228007 
L 192.961164 99.889069 
L 193.688382 95.334966 
L 194.415599 83.958264 
L 195.142817 83.045 
L 195.870034 81.585371 
L 196.597252 78.295314 
L 197.32447 71.33532 
L 198.051687 92.600017 
L 198.778905 86.338096 
L 199.506122 87.053121 
L 200.23334 66.048038 
L 200.960557 80.619561 
L 201.687775 69.972571 
L 202.414992 65.159565 
L 203.14221 67.329412 
L 203.869427 72.426264 
L 204.596645 78.976651 
L 205.323862 77.440212 
L 206.05108 70.256813 
L 206.778298 72.936083 
L 207.505515 65.491013 
L 208.232733 72.301713 
L 209.687168 66.16276 
L 210.414385 66.209662 
L 211.141603 64.784909 
L 211.86882 78.313788 
L 212.596038 65.926267 
L 213.323255 63.023904 
L 214.050473 63.364639 
L 214.77769 63.233351 
L 215.504908 76.307416 
L 216.232125 72.338983 
L 216.959343 64.665474 
L 217.686561 59.712913 
L 218.413778 62.306819 
L 219.140996 51.263103 
L 219.868213 57.190759 
L 220.595431 61.308963 
L 221.322648 69.1794 
L 222.049866 57.772848 
L 222.777083 58.859383 
L 223.504301 50.902315 
L 224.231518 55.318546 
L 224.958736 66.006548 
L 226.413171 47.619636 
L 227.140388 44.467842 
L 227.867606 50.892526 
L 228.594824 51.598327 
L 229.322041 43.273742 
L 230.049259 42.736162 
L 230.776476 48.630192 
L 231.503694 42.085786 
L 232.230911 54.830714 
L 232.958129 46.564646 
L 233.685346 49.38783 
L 234.412564 47.802876 
L 235.866999 47.469677 
L 236.594216 59.97145 
L 237.321434 52.338435 
L 238.048652 47.822503 
L 238.775869 50.129065 
L 239.503087 49.277566 
L 240.230304 43.008287 
L 240.957522 38.220032 
L 241.684739 46.622093 
L 242.411957 39.746666 
L 243.139174 30.225233 
L 243.866392 43.670048 
L 244.593609 43.605938 
L 245.320827 46.757288 
L 246.048044 31.601365 
L 246.775262 35.543995 
L 247.502479 32.613986 
L 248.229697 43.511295 
L 248.956915 42.653537 
L 249.684132 37.066006 
L 250.41135 41.436552 
L 251.138567 30.442856 
L 251.865785 28.015666 
L 252.593002 42.244119 
L 253.32022 35.173278 
L 254.047437 41.395844 
L 254.774655 41.408043 
L 255.501872 33.906258 
L 256.22909 45.284465 
L 256.956307 32.435195 
L 257.683525 26.961539 
L 258.410742 34.924908 
L 259.13796 38.940111 
L 259.865178 31.703633 
L 260.592395 37.847489 
L 261.319613 35.464996 
L 262.04683 31.947454 
L 262.774048 33.653265 
L 263.501265 33.314275 
L 264.9557 26.270372 
L 265.682918 24.608946 
L 266.410135 31.954175 
L 267.137353 37.323556 
L 267.86457 34.693828 
L 268.591788 34.238092 
L 269.319006 20.043521 
L 270.046223 32.890857 
L 270.773441 31.559053 
L 271.500658 34.921799 
L 272.227876 28.020988 
L 272.955093 26.004219 
L 273.682311 39.709339 
L 274.409528 18.077051 
L 275.136746 27.707431 
L 275.863963 22.392149 
L 276.591181 24.076968 
L 277.318398 33.688832 
L 278.045616 33.47274 
L 278.772833 26.139159 
L 279.500051 35.455274 
L 280.227269 19.816356 
L 280.954486 26.913412 
L 281.681704 31.29081 
L 282.408921 24.532021 
L 283.136139 14.097118 
L 283.863356 32.344386 
L 284.590574 27.347086 
L 285.317791 35.112804 
L 286.045009 27.215157 
L 286.772226 37.111452 
L 287.499444 28.822122 
L 288.226661 34.542684 
L 288.953879 38.802811 
L 289.681096 38.837054 
L 290.408314 43.675559 
L 291.135532 21.768522 
L 291.862749 29.350686 
L 292.589967 27.465592 
L 293.317184 34.543646 
L 294.044402 34.061079 
L 294.771619 48.241758 
L 295.498837 34.718069 
L 296.226054 19.100619 
L 296.953272 37.761861 
L 297.680489 30.876638 
L 298.407707 43.587916 
L 299.134924 53.565084 
L 299.862142 33.011879 
L 300.58936 37.66281 
L 301.316577 35.823992 
L 302.043795 34.346003 
L 302.771012 33.248586 
L 303.49823 28.298336 
L 304.952665 44.883487 
L 305.679882 26.548576 
L 306.4071 47.56501 
L 307.134317 37.165321 
L 307.861535 38.173632 
L 308.588752 38.513387 
L 309.31597 41.657589 
L 310.043187 45.488878 
L 310.770405 56.014245 
L 311.497623 33.338384 
L 312.22484 38.923076 
L 312.952058 36.435042 
L 313.679275 41.828236 
L 314.406493 31.543227 
L 315.13371 35.030433 
L 315.860928 48.53902 
L 316.588145 37.928165 
L 317.315363 46.857467 
L 318.04258 51.753287 
L 318.769798 36.769986 
L 319.497015 39.747431 
L 320.224233 34.636677 
L 320.951451 50.619126 
L 321.678668 44.504882 
L 322.405886 45.751223 
L 323.133103 41.613484 
L 323.860321 55.901202 
L 324.587538 37.542363 
L 325.314756 49.15448 
L 326.041973 50.72795 
L 326.769191 43.637138 
L 327.496408 45.71874 
L 328.223626 55.145152 
L 328.950843 46.549009 
L 329.678061 52.64695 
L 330.405278 63.958703 
L 331.132496 41.354996 
L 331.859714 53.047863 
L 332.586931 54.4547 
L 333.314149 42.932555 
L 334.041366 72.808727 
L 334.768584 66.774821 
L 335.495801 56.014023 
L 336.223019 60.380309 
L 336.950236 67.420756 
L 337.677454 70.95062 
L 338.404671 50.700781 
L 339.131889 69.670563 
L 339.859106 64.601545 
L 340.586324 67.821726 
L 341.313541 53.188552 
L 342.040759 65.279444 
L 342.767977 54.328356 
L 343.495194 60.814312 
L 344.222412 65.3483 
L 344.949629 63.402649 
L 345.676847 75.055013 
L 346.404064 77.008495 
L 347.131282 66.187428 
L 347.858499 75.114401 
L 348.585717 73.623992 
L 349.312934 71.523019 
L 350.040152 76.274514 
L 350.767369 74.901377 
L 351.494587 87.158613 
L 352.221805 81.634345 
L 352.949022 62.765771 
L 353.67624 74.167305 
L 354.403457 67.320701 
L 355.130675 84.982783 
L 355.857892 75.50402 
L 356.58511 73.707728 
L 357.312327 79.269102 
L 358.039545 79.526651 
L 358.766762 95.21176 
L 359.49398 86.738893 
L 360.221197 91.299092 
L 360.948415 94.939042 
L 361.675632 95.969381 
L 362.40285 69.414551 
L 363.130068 80.363459 
L 363.857285 81.166954 
L 364.584503 86.559317 
L 365.31172 86.774942 
L 366.038938 87.717744 
L 366.766155 84.622838 
L 367.493373 88.822598 
L 368.22059 78.996911 
L 368.947808 101.671596 
L 369.675025 86.309171 
L 370.402243 89.464222 
L 371.12946 90.169685 
L 371.856678 88.931775 
L 372.583895 102.049695 
L 373.311113 89.915532 
L 374.038331 100.426443 
L 374.765548 90.28652 
L 375.492766 101.636629 
L 376.219983 106.764525 
L 376.947201 102.074355 
L 377.674418 96.244471 
L 379.128853 111.212486 
L 379.856071 99.094795 
L 380.583288 100.038112 
L 381.310506 108.822816 
L 382.037723 103.721283 
L 382.764941 108.145394 
L 383.492159 102.498722 
L 384.219376 101.328229 
L 384.946594 107.189945 
L 385.673811 105.378843 
L 386.401029 104.948804 
L 387.128246 109.132648 
L 387.855464 107.57235 
L 388.582681 108.660551 
L 389.309899 107.237238 
L 390.037116 104.539617 
L 390.764334 116.676864 
L 391.491551 106.118837 
L 392.218769 129.036103 
L 392.945986 112.170674 
L 393.673204 127.672394 
L 394.400422 119.941317 
L 395.127639 116.517021 
L 395.854857 128.155533 
L 397.309292 112.897363 
L 398.036509 99.805835 
L 398.763727 114.350338 
L 399.490944 124.142388 
L 400.945379 115.139734 
L 401.672597 118.482611 
L 402.399814 108.942971 
L 403.127032 130.981327 
L 403.854249 115.055463 
L 404.581467 112.691346 
L 405.308685 124.302722 
L 406.035902 125.107535 
L 406.76312 110.74106 
L 407.490337 122.25387 
L 408.217555 120.292452 
L 408.944772 128.967877 
L 409.67199 103.756772 
L 410.399207 133.347514 
L 411.126425 119.066252 
L 411.853642 128.102121 
L 412.58086 130.523181 
L 413.308077 120.868102 
L 414.035295 117.760966 
L 414.762513 123.491047 
L 415.48973 135.284839 
L 416.216948 120.790486 
L 416.944165 123.673965 
L 417.671383 132.783494 
L 418.3986 135.67518 
L 419.125818 133.368549 
L 419.853035 134.1743 
L 420.580253 136.567656 
L 421.30747 133.060885 
L 422.034688 135.471017 
L 422.761905 135.108632 
L 423.489123 124.600067 
L 424.21634 120.824439 
L 424.943558 141.36095 
L 425.670776 135.744484 
L 426.397993 138.448076 
L 427.125211 131.875329 
L 427.852428 146.89997 
L 428.579646 129.915483 
L 429.306863 123.451322 
L 430.761298 143.243175 
L 431.488516 127.976394 
L 432.215733 130.900058 
L 432.942951 135.822674 
L 433.670168 125.286655 
L 434.397386 131.545195 
L 435.124603 132.820264 
L 435.851821 138.44121 
L 436.579039 134.866742 
L 437.306256 133.569326 
L 438.033474 143.493416 
L 438.760691 143.820234 
L 439.487909 125.506303 
L 440.942344 133.131413 
L 441.669561 137.177534 
L 442.396779 142.412742 
L 443.123996 138.150019 
L 443.851214 141.133687 
L 444.578431 132.730069 
L 445.305649 126.865252 
L 446.032867 130.975797 
L 446.760084 129.439706 
L 447.487302 139.020936 
L 448.214519 131.665014 
L 448.941737 130.491502 
L 449.668954 121.948776 
L 450.396172 125.074857 
L 451.123389 139.234287 
L 451.850607 128.513177 
L 452.577824 139.010788 
L 453.305042 124.6112 
L 454.032259 118.428166 
L 454.759477 129.026467 
L 455.486694 127.47885 
L 456.213912 129.673691 
L 456.94113 133.841412 
L 457.668347 140.860543 
L 458.395565 123.694934 
L 459.122782 127.685347 
L 459.85 138.671135 
L 460.577217 126.557179 
L 461.304435 128.292161 
L 462.031652 124.931024 
L 462.75887 130.562096 
L 464.213305 119.913128 
L 464.940522 122.182462 
L 465.66774 116.604302 
L 466.394957 130.700357 
L 467.122175 111.611531 
L 467.849393 135.4707 
L 468.57661 127.362014 
L 469.303828 111.389216 
L 470.031045 115.762283 
L 470.758263 127.777811 
L 471.48548 119.038188 
L 472.212698 132.479038 
L 472.939915 124.09131 
L 473.667133 124.975725 
L 474.39435 114.803729 
L 475.121568 121.217699 
L 475.848785 116.684678 
L 476.576003 128.845625 
L 477.303221 114.469155 
L 478.030438 129.103857 
L 479.484873 112.367544 
L 480.212091 117.570222 
L 480.939308 121.453725 
L 481.666526 129.474477 
L 482.393743 124.657664 
L 483.120961 105.397791 
L 483.848178 110.262819 
L 484.575396 110.496272 
L 485.302613 130.181466 
L 486.029831 122.203215 
L 486.757048 112.478692 
L 487.484266 118.941659 
L 488.211484 115.145426 
L 488.938701 115.015236 
L 489.665919 109.741608 
L 490.393136 106.313445 
L 491.120354 112.014229 
L 491.847571 98.931831 
L 493.302006 113.790339 
L 494.029224 100.429828 
L 494.756441 112.729167 
L 495.483659 112.019575 
L 496.210876 99.331687 
L 496.938094 102.866066 
L 497.665312 104.154522 
L 498.392529 115.677918 
L 499.119747 104.068454 
L 499.846964 108.168607 
L 500.574182 103.944796 
L 501.301399 96.009739 
L 502.028617 85.157699 
L 502.755834 93.240268 
L 503.483052 97.42215 
L 504.210269 99.372177 
L 504.937487 84.7411 
L 505.664704 103.107733 
L 506.391922 84.657949 
L 507.119139 95.703157 
L 507.846357 81.512813 
L 508.573575 95.818697 
L 509.300792 80.576295 
L 510.02801 92.382111 
L 510.755227 87.442061 
L 512.209662 99.12708 
L 513.664097 90.615225 
L 514.391315 91.198465 
L 515.118532 92.715672 
L 515.84575 77.305486 
L 516.572967 80.251008 
L 517.300185 87.401501 
L 518.027402 75.265998 
L 518.75462 79.481847 
L 519.481838 90.141599 
L 520.209055 76.765875 
L 520.936273 75.332436 
L 521.66349 72.027688 
L 522.390708 81.964971 
L 523.117925 83.705691 
L 523.845143 76.908505 
L 524.57236 80.269022 
L 525.299578 65.962616 
L 526.026795 77.93608 
L 526.754013 76.465495 
L 527.48123 68.239945 
L 528.208448 75.70163 
L 528.935666 70.457343 
L 529.662883 71.288336 
L 530.390101 85.879263 
L 531.117318 82.825723 
L 531.844536 69.104424 
L 532.571753 71.49251 
L 533.298971 71.378471 
L 534.026188 61.833785 
L 534.753406 72.267207 
L 535.480623 65.655713 
L 536.207841 73.012334 
L 536.935058 72.613239 
L 537.662276 78.127908 
L 538.389493 61.685363 
L 539.116711 65.546782 
L 539.843929 61.177593 
L 540.571146 57.570351 
L 541.298364 48.701812 
L 542.025581 54.070807 
L 542.752799 60.73427 
L 543.480016 49.963823 
L 544.207234 46.324847 
L 544.934451 61.495025 
L 545.661669 57.367641 
L 546.388886 43.873095 
L 547.116104 68.482788 
L 547.843321 52.302473 
L 548.570539 44.73824 
L 549.297756 57.734623 
L 550.024974 49.866679 
L 550.752192 55.979336 
L 551.479409 47.30394 
L 552.206627 43.346612 
L 552.933844 62.021747 
L 553.661062 62.91782 
L 554.388279 50.102341 
L 555.115497 40.054498 
L 555.842714 64.022797 
L 556.569932 43.298377 
L 557.297149 52.325974 
L 558.024367 47.433311 
L 558.751584 29.261522 
L 559.478802 52.15457 
L 560.20602 44.233974 
L 560.933237 51.364952 
L 561.660455 40.184437 
L 562.387672 47.974 
L 563.11489 40.997687 
L 563.842107 51.513168 
L 564.569325 38.819903 
L 565.296542 52.995598 
L 566.02376 49.517143 
L 566.750977 41.2765 
L 567.478195 31.606777 
L 568.205412 31.127525 
L 568.93263 58.173011 
L 570.387065 27.406919 
L 571.114283 49.567845 
L 571.8415 32.919482 
L 572.568718 37.255119 
L 573.295935 37.089745 
L 574.023153 37.102634 
L 574.75037 31.032652 
L 575.477588 30.555299 
L 576.204805 21.698588 
L 576.932023 34.157334 
L 577.65924 37.485936 
L 578.386458 35.233703 
L 579.113675 40.935782 
L 579.840893 41.185221 
L 580.56811 44.574174 
L 581.295328 33.241627 
L 582.022546 29.743044 
L 582.749763 29.80504 
L 583.476981 23.855479 
L 584.204198 33.997553 
L 584.931416 28.052302 
L 585.658633 26.932668 
L 586.385851 29.196318 
L 587.113068 32.416647 
L 587.840286 27.989575 
L 588.567503 35.653789 
L 589.294721 38.754774 
L 590.021938 40.346184 
L 590.749156 39.238369 
L 591.476374 35.562337 
L 592.203591 33.612401 
L 593.658026 24.997397 
L 594.385244 29.684396 
L 595.112461 16.8187 
L 595.839679 31.997597 
L 596.566896 32.683179 
L 597.294114 36.127506 
L 598.021331 26.546026 
L 598.748549 26.919762 
L 599.475766 45.252229 
L 600.202984 34.288005 
L 600.930201 36.447059 
L 601.657419 20.777641 
L 602.384637 42.6601 
L 603.111854 24.690675 
L 603.839072 24.442577 
L 604.566289 36.114715 
L 606.020724 28.521002 
L 606.747942 26.51551 
L 607.475159 25.839683 
L 608.202377 26.170909 
L 608.929594 33.143784 
L 609.656812 29.945647 
L 610.384029 28.592013 
L 611.111247 25.446569 
L 611.838464 39.527892 
L 612.565682 35.062776 
L 613.2929 25.196463 
L 614.020117 35.110879 
L 614.747335 23.484927 
L 615.474552 24.482693 
L 616.20177 25.693294 
L 616.928987 20.657515 
L 617.656205 32.48394 
L 618.383422 35.101831 
L 619.11064 39.682606 
L 619.837857 34.214477 
L 620.565075 39.692805 
L 621.292292 34.099846 
L 622.01951 14.863689 
L 622.746728 47.846554 
L 623.473945 38.865522 
L 624.201163 28.002291 
L 624.92838 24.187322 
L 625.655598 35.422602 
L 626.382815 29.56571 
L 627.110033 29.836634 
L 627.83725 29.310398 
L 628.564468 29.833196 
L 629.291685 51.329393 
L 630.018903 37.288408 
L 630.74612 51.607761 
L 631.473338 40.189586 
L 632.200555 44.149218 
L 632.927773 33.046879 
L 633.654991 40.503859 
L 634.382208 39.293727 
L 635.109426 41.970587 
L 635.836643 49.168405 
L 636.563861 44.679428 
L 637.291078 44.552113 
L 638.018296 45.208774 
L 638.745513 46.405893 
L 639.472731 45.631278 
L 640.199948 56.757208 
L 640.927166 35.129312 
L 641.654383 39.026677 
L 642.381601 44.89622 
L 643.108818 48.459661 
L 643.836036 41.050405 
L 644.563254 45.219952 
L 645.290471 51.560407 
L 646.017689 54.144828 
L 646.744906 42.872385 
L 648.199341 58.211992 
L 648.926559 52.279557 
L 649.653776 53.445715 
L 650.380994 54.882214 
L 651.108211 49.540734 
L 651.835429 45.977252 
L 652.562646 65.593076 
L 653.289864 50.372549 
L 654.017082 61.731665 
L 654.744299 47.61614 
L 656.198734 66.2716 
L 656.925952 65.653714 
L 657.653169 54.578314 
L 658.380387 48.622263 
L 659.834822 59.080156 
L 660.562039 62.729093 
L 661.289257 68.260213 
L 662.016474 62.671243 
L 662.743692 64.666946 
L 663.470909 69.573123 
L 664.198127 61.413493 
L 664.925345 57.688791 
L 665.652562 67.695612 
L 666.37978 67.97389 
L 667.106997 69.576265 
L 667.834215 63.177483 
L 668.561432 71.800342 
L 669.28865 72.332263 
L 670.015867 71.787831 
L 670.743085 66.263711 
L 671.470302 68.674336 
L 672.19752 79.75046 
L 672.924737 80.072341 
L 673.651955 77.808222 
L 674.379172 69.302848 
L 675.10639 72.306213 
L 675.833608 77.487163 
L 676.560825 77.776143 
L 677.288043 76.616285 
L 678.01526 84.452849 
L 678.742478 71.600503 
L 679.469695 75.678994 
L 680.196913 86.743845 
L 680.92413 91.764032 
L 681.651348 75.007379 
L 682.378565 81.649275 
L 683.105783 83.335521 
L 683.833 79.273157 
L 684.560218 86.771824 
L 685.287436 87.637138 
L 686.014653 80.467677 
L 686.741871 86.003243 
L 687.469088 88.227036 
L 688.196306 84.145313 
L 688.923523 72.37163 
L 689.650741 95.953904 
L 690.377958 77.702532 
L 691.105176 83.766782 
L 691.832393 87.080849 
L 692.559611 94.523624 
L 693.286828 96.500919 
L 694.014046 97.598369 
L 694.741263 81.492636 
L 695.468481 100.323793 
L 696.195699 91.640262 
L 696.922916 104.294726 
L 697.650134 107.137952 
L 698.377351 103.246135 
L 699.104569 84.003554 
L 699.831786 94.743933 
L 700.559004 97.354848 
L 701.286221 93.499134 
L 702.013439 106.289295 
L 702.740656 101.540937 
L 703.467874 100.758582 
L 704.195091 102.360303 
L 704.922309 103.527523 
L 705.649527 93.404491 
L 706.376744 111.185416 
L 707.103962 102.773315 
L 707.831179 111.658413 
L 708.558397 95.845743 
L 709.285614 114.794364 
L 710.012832 109.399805 
L 710.740049 120.398808 
L 711.467267 113.263412 
L 712.194484 102.352678 
L 712.921702 107.292945 
L 713.648919 121.661263 
L 714.376137 112.782613 
L 715.103354 111.909908 
L 715.830572 98.342019 
L 716.55779 109.252169 
L 717.285007 125.347622 
L 718.012225 116.855424 
L 718.739442 120.961573 
L 719.46666 114.411852 
L 720.193877 105.709016 
L 720.921095 119.907684 
L 721.648312 123.966765 
L 722.37553 121.139405 
L 723.102747 120.703425 
L 723.829965 109.878942 
L 724.557182 110.770421 
L 726.738835 117.16414 
L 727.466053 121.100337 
L 728.19327 112.734321 
L 728.920488 128.533116 
L 729.647705 140.545344 
L 730.374923 121.820836 
L 731.10214 118.676526 
L 731.829358 127.637072 
L 732.556575 122.242537 
L 733.283793 126.877748 
L 734.01101 113.064201 
L 734.738228 131.8661 
L 735.465445 121.897939 
L 736.192663 133.180538 
L 736.919881 139.268833 
L 737.647098 130.897258 
L 738.374316 124.472275 
L 739.101533 106.905934 
L 739.828751 131.845421 
L 740.555968 128.128027 
L 741.283186 131.07628 
L 742.010403 126.378138 
L 742.737621 128.09816 
L 743.464838 127.863126 
L 744.192056 128.077689 
L 744.919273 125.956219 
L 745.646491 133.794543 
L 746.373708 135.323036 
L 747.100926 134.793191 
L 747.828144 135.056822 
L 748.555361 136.984625 
L 749.282579 128.547019 
L 750.009796 121.741129 
L 750.737014 139.015456 
L 751.464231 132.26583 
L 752.191449 129.299098 
L 752.918666 142.256325 
L 753.645884 136.983153 
L 754.373101 135.53348 
L 755.100319 122.136442 
L 755.827536 141.720941 
L 756.554754 130.278471 
L 757.281971 114.575639 
L 758.736407 135.878997 
L 759.463624 135.841068 
L 760.190842 130.213385 
L 760.918059 136.086191 
L 761.645277 136.119818 
L 762.372494 134.315594 
L 763.099712 134.395474 
L 763.826929 126.267083 
L 764.554147 136.163367 
L 765.281364 130.583811 
L 766.008582 138.824144 
L 766.735799 137.952909 
L 767.463017 130.767619 
L 768.190235 128.941942 
L 768.917452 126.620431 
L 769.64467 123.657983 
L 770.371887 130.068831 
L 771.099105 133.73096 
L 771.826322 143.96533 
L 772.55354 129.299351 
L 773.280757 142.082902 
L 774.007975 127.723892 
L 774.735192 133.835155 
L 775.46241 133.477864 
L 776.189627 124.826728 
L 776.916845 126.449389 
L 777.644062 120.923359 
L 778.37128 133.330901 
L 779.098498 136.984977 
L 779.825715 140.03601 
L 780.552933 134.549686 
L 781.28015 138.393956 
L 782.007368 119.429475 
L 782.734585 124.815934 
L 783.461803 135.010161 
L 784.18902 121.470266 
L 784.916238 136.043713 
L 784.916238 136.043713 
" clip-path="url(#p10007b494b)" style="fill: none; stroke: #92c5de; stroke-width: 2; stroke-linecap: square"/>
   </g>
   <g id="line2d_17">
    <path d="M 58.42592 101.571623 
L 64.243661 106.780951 
L 69.334183 111.071175 
L 74.424706 115.066901 
L 78.788011 118.227465 
L 83.151317 121.119762 
L 87.514622 123.722837 
L 91.150709 125.657455 
L 94.786797 127.36835 
L 98.422885 128.84691 
L 102.058972 130.085692 
L 105.69506 131.078464 
L 109.331148 131.820226 
L 112.967235 132.307248 
L 116.603323 132.537075 
L 120.239411 132.508555 
L 123.875499 132.22183 
L 127.511586 131.67834 
L 131.147674 130.880823 
L 134.783762 129.833293 
L 138.419849 128.541023 
L 142.055937 127.010514 
L 145.692025 125.249473 
L 149.328112 123.266758 
L 153.691417 120.60902 
L 158.054723 117.665762 
L 162.418028 114.458306 
L 167.508551 110.413466 
L 172.599073 106.080617 
L 178.416814 100.831049 
L 184.961771 94.626727 
L 193.688382 86.032188 
L 213.323255 66.56864 
L 219.868213 60.418187 
L 225.685953 55.232416 
L 230.776476 50.967017 
L 235.866999 46.999785 
L 240.230304 43.866358 
L 244.593609 41.003486 
L 248.956915 38.43193 
L 252.593002 36.524996 
L 256.22909 34.842941 
L 259.865178 33.394219 
L 263.501265 32.186135 
L 267.137353 31.224751 
L 270.773441 30.51492 
L 274.409528 30.060213 
L 278.045616 29.862915 
L 281.681704 29.924014 
L 285.317791 30.243214 
L 288.953879 30.818903 
L 292.589967 31.648185 
L 296.226054 32.726881 
L 299.862142 34.049563 
L 303.49823 35.609585 
L 307.134317 37.399083 
L 310.770405 39.409049 
L 315.13371 42.097721 
L 319.497015 45.06977 
L 323.860321 48.303663 
L 328.950843 52.376108 
L 334.041366 56.732836 
L 339.859106 62.004818 
L 347.131282 68.934172 
L 356.58511 78.289712 
L 373.311113 94.8825 
L 380.583288 101.74579 
L 386.401029 106.945429 
L 391.491551 111.225433 
L 396.582074 115.209416 
L 400.945379 118.358794 
L 405.308685 121.238952 
L 409.67199 123.829024 
L 413.308077 125.752216 
L 416.944165 127.451206 
L 420.580253 128.917444 
L 424.21634 130.14355 
L 427.852428 131.123353 
L 431.488516 131.851923 
L 435.124603 132.325591 
L 438.760691 132.541974 
L 442.396779 132.499984 
L 446.032867 132.19983 
L 449.668954 131.643026 
L 453.305042 130.832371 
L 456.94113 129.771947 
L 460.577217 128.46709 
L 464.213305 126.924368 
L 467.849393 125.151546 
L 471.48548 123.157545 
L 475.848785 120.486992 
L 480.212091 117.531805 
L 484.575396 114.313388 
L 489.665919 110.257094 
L 494.756441 105.914338 
L 500.574182 100.65545 
L 507.119139 94.443359 
L 515.84575 85.84312 
L 535.480623 66.386741 
L 542.025581 60.244702 
L 547.843321 55.068794 
L 552.933844 50.813751 
L 558.024367 46.858396 
L 562.387672 43.736255 
L 566.750977 40.885631 
L 571.114283 38.327153 
L 574.75037 36.431719 
L 578.386458 34.761615 
L 582.022546 33.325264 
L 585.658633 32.129897 
L 589.294721 31.181517 
L 592.930809 30.484897 
L 596.566896 30.043564 
L 600.202984 29.859715 
L 603.839072 29.934288 
L 607.475159 30.266904 
L 611.111247 30.855885 
L 614.747335 31.698278 
L 618.383422 32.789831 
L 622.01951 34.125057 
L 625.655598 35.697236 
L 629.291685 37.498455 
L 632.927773 39.51965 
L 637.291078 42.221046 
L 641.654383 45.204924 
L 646.017689 48.449667 
L 651.108211 52.533438 
L 656.198734 56.899929 
L 662.016474 62.18105 
L 669.28865 69.118638 
L 678.742478 78.479302 
L 694.741263 94.362338 
L 702.013439 101.250773 
L 707.831179 106.477729 
L 712.921702 110.78658 
L 718.012225 114.803749 
L 722.37553 117.98476 
L 726.738835 120.899266 
L 731.10214 123.526146 
L 734.738228 125.4817 
L 738.374316 127.214415 
L 742.010403 128.715569 
L 745.646491 129.977606 
L 749.282579 130.994175 
L 752.918666 131.760161 
L 756.554754 132.271709 
L 760.190842 132.526242 
L 763.826929 132.522481 
L 767.463017 132.260442 
L 771.099105 131.741448 
L 774.735192 130.96811 
L 778.37128 129.944317 
L 782.007368 128.675225 
L 784.916238 127.487587 
L 784.916238 127.487587 
" clip-path="url(#p10007b494b)" style="fill: none; stroke: #0571b0; stroke-width: 3; stroke-linecap: square"/>
   </g>
   <g id="patch_3">
    <path d="M 58.42592 158.936602 
L 58.42592 7.2 
" style="fill: none; stroke: #000000; stroke-width: 0.8; stroke-linejoin: miter; stroke-linecap: square"/>
   </g>
   <g id="patch_4">
    <path d="M 784.916238 158.936602 
L 784.916238 7.2 
" style="fill: none; stroke: #000000; stroke-width: 0.8; stroke-linejoin: miter; stroke-linecap: square"/>
   </g>
   <g id="patch_5">
    <path d="M 58.42592 158.936602 
L 784.916238 158.936602 
" style="fill: none; stroke: #000000; stroke-width: 0.8; stroke-linejoin: miter; stroke-linecap: square"/>
   </g>
   <g id="patch_6">
    <path d="M 58.42592 7.2 
L 784.916238 7.2 
" style="fill: none; stroke: #000000; stroke-width: 0.8; stroke-linejoin: miter; stroke-linecap: square"/>
   </g>
   <g id="legend_1">
    <g id="patch_7">
     <path d="M 575.124026 64.08792 
L 774.416238 64.08792 
Q 777.416238 64.08792 777.416238 61.08792 
L 777.416238 17.7 
Q 777.416238 14.7 774.416238 14.7 
L 575.124026 14.7 
Q 572.124026 14.7 572.124026 17.7 
L 572.124026 61.08792 
Q 572.124026 64.08792 575.124026 64.08792 
z
" style="fill: #ffffff; opacity: 0.8; stroke: #cccccc; stroke-linejoin: miter"/>
    </g>
    <g id="line2d_18">
     <path d="M 578.124026 26.65797 
L 593.124026 26.65797 
L 608.124026 26.65797 
" style="fill: none; stroke: #92c5de; stroke-width: 2; stroke-linecap: square"/>
    </g>
    <g id="text_7">
     <!-- MinMax(NoiseData) -->
     <g transform="translate(620.124026 31.90797) scale(0.15 -0.15)">
      <defs>
       <path id="CMR17-28" d="M 1958 -1561 
C 1958 -1555 1958 -1542 1939 -1523 
C 1645 -1224 858 -407 858 1581 
C 858 3569 1632 4379 1946 4697 
C 1946 4704 1958 4717 1958 4736 
C 1958 4755 1939 4768 1914 4768 
C 1843 4768 1299 4296 986 3594 
C 666 2887 576 2199 576 1588 
C 576 1128 621 351 1005 -471 
C 1312 -1135 1837 -1600 1914 -1600 
C 1946 -1600 1958 -1587 1958 -1561 
z
" transform="scale(0.015625)"/>
       <path id="CMR17-4e" d="M 1312 4250 
C 1267 4320 1261 4320 1139 4320 
L 326 4320 
L 326 4160 
L 448 4160 
C 704 4160 819 4129 838 4122 
L 838 610 
C 838 451 838 153 326 153 
L 326 -13 
C 474 0 742 0 902 0 
C 1062 0 1331 0 1478 -13 
L 1478 153 
C 966 153 966 451 966 610 
L 966 4033 
C 1011 3995 1011 3982 1056 3919 
L 3430 76 
C 3475 0 3494 0 3526 0 
C 3590 0 3590 19 3590 139 
L 3590 3705 
C 3590 3863 3590 4160 4102 4160 
L 4102 4326 
C 3955 4320 3686 4320 3526 4320 
C 3366 4320 3098 4320 2950 4326 
L 2950 4160 
C 3462 4160 3462 3862 3462 3703 
L 3462 763 
L 1312 4250 
z
" transform="scale(0.015625)"/>
       <path id="CMR17-6f" d="M 2758 1356 
C 2758 2176 2163 2816 1466 2816 
C 768 2816 173 2176 173 1356 
C 173 551 768 -64 1466 -64 
C 2163 -64 2758 551 2758 1356 
z
M 1466 51 
C 1165 51 909 230 762 480 
C 602 767 582 1126 582 1408 
C 582 1677 595 2010 762 2298 
C 890 2509 1139 2714 1466 2714 
C 1754 2714 1997 2554 2150 2330 
C 2349 2029 2349 1607 2349 1408 
C 2349 1158 2336 775 2163 467 
C 1984 173 1709 51 1466 51 
z
" transform="scale(0.015625)"/>
       <path id="CMR17-73" d="M 1978 2697 
C 1978 2813 1971 2819 1933 2819 
C 1907 2819 1901 2813 1824 2717 
C 1805 2691 1747 2626 1728 2601 
C 1523 2819 1235 2819 1126 2819 
C 416 2819 160 2447 160 2076 
C 160 1498 813 1365 998 1325 
C 1402 1243 1542 1217 1677 1101 
C 1760 1025 1901 884 1901 654 
C 1901 384 1747 38 1158 38 
C 602 38 403 460 288 1021 
C 269 1110 269 1117 218 1117 
C 166 1117 160 1110 160 983 
L 160 63 
C 160 -51 166 -58 205 -58 
C 237 -58 243 -51 275 0 
C 314 57 410 211 448 276 
C 576 103 800 -64 1158 -64 
C 1792 -64 2131 283 2131 784 
C 2131 1112 1958 1285 1875 1362 
C 1683 1561 1459 1606 1190 1657 
C 838 1735 390 1825 390 2217 
C 390 2383 480 2737 1126 2737 
C 1811 2737 1850 2094 1862 1888 
C 1869 1856 1901 1849 1920 1849 
C 1978 1849 1978 1869 1978 1978 
L 1978 2697 
z
" transform="scale(0.015625)"/>
       <path id="CMR17-65" d="M 2438 1472 
C 2464 1498 2464 1511 2464 1576 
C 2464 2238 2118 2816 1389 2816 
C 710 2816 173 2169 173 1383 
C 173 551 781 -64 1459 -64 
C 2176 -64 2458 607 2458 740 
C 2458 784 2419 784 2406 784 
C 2362 784 2355 771 2330 696 
C 2189 265 1837 51 1504 51 
C 1229 51 954 203 781 480 
C 582 803 582 1176 582 1472 
L 2438 1472 
z
M 589 1568 
C 634 2505 1126 2714 1382 2714 
C 1818 2714 2112 2297 2118 1568 
L 589 1568 
z
" transform="scale(0.015625)"/>
       <path id="CMR17-44" d="M 333 4352 
L 333 4186 
C 774 4186 845 4186 845 3900 
L 845 452 
C 845 166 774 166 333 166 
L 333 0 
L 2368 0 
C 3398 0 4224 943 4224 2141 
C 4224 3346 3411 4352 2368 4352 
L 333 4352 
z
M 1523 166 
C 1267 166 1254 197 1254 414 
L 1254 3938 
C 1254 4155 1267 4186 1523 4186 
L 2240 4186 
C 2771 4186 3750 3874 3750 2141 
C 3750 1242 3488 879 3366 707 
C 3213 510 2848 166 2240 166 
L 1523 166 
z
" transform="scale(0.015625)"/>
       <path id="CMR17-74" d="M 966 2560 
L 1862 2560 
L 1862 2725 
L 966 2725 
L 966 3904 
L 851 3904 
C 838 3245 614 2668 70 2668 
L 70 2560 
L 627 2560 
L 627 771 
C 627 650 627 -64 1370 -64 
C 1747 -64 1965 306 1965 777 
L 1965 1140 
L 1850 1140 
L 1850 783 
C 1850 344 1677 51 1408 51 
C 1222 51 966 178 966 758 
L 966 2560 
z
" transform="scale(0.015625)"/>
       <path id="CMR17-29" d="M 1683 1581 
C 1683 2040 1638 2817 1254 3639 
C 947 4303 422 4768 346 4768 
C 326 4768 301 4761 301 4729 
C 301 4717 307 4710 314 4697 
C 621 4378 1402 3568 1402 1584 
C 1402 -407 627 -1217 314 -1537 
C 307 -1549 301 -1556 301 -1568 
C 301 -1600 326 -1600 346 -1600 
C 416 -1600 960 -1128 1274 -426 
C 1594 281 1683 969 1683 1581 
z
" transform="scale(0.015625)"/>
      </defs>
      <use xlink:href="#CMR17-4d" transform="scale(0.996264)"/>
      <use xlink:href="#CMR17-69" transform="translate(84.686941 0) scale(0.996264)"/>
      <use xlink:href="#CMR17-6e" transform="translate(109.557999 0) scale(0.996264)"/>
      <use xlink:href="#CMR17-4d" transform="translate(160.453369 0) scale(0.996264)"/>
      <use xlink:href="#CMR17-61" transform="translate(245.140309 0) scale(0.996264)"/>
      <use xlink:href="#CMR17-78" transform="translate(290.830787 0) scale(0.996264)"/>
      <use xlink:href="#CMR17-28" transform="translate(339.123702 0) scale(0.996264)"/>
      <use xlink:href="#CMR17-4e" transform="translate(374.40447 0) scale(0.996264)"/>
      <use xlink:href="#CMR17-6f" transform="translate(443.4769 0) scale(0.996264)"/>
      <use xlink:href="#CMR17-69" transform="translate(489.167377 0) scale(0.996264)"/>
      <use xlink:href="#CMR17-73" transform="translate(514.038436 0) scale(0.996264)"/>
      <use xlink:href="#CMR17-65" transform="translate(549.839773 0) scale(0.996264)"/>
      <use xlink:href="#CMR17-44" transform="translate(590.325434 0) scale(0.996264)"/>
      <use xlink:href="#CMR17-61" transform="translate(660.71899 0) scale(0.996264)"/>
      <use xlink:href="#CMR17-74" transform="translate(706.409467 0) scale(0.996264)"/>
      <use xlink:href="#CMR17-61" transform="translate(741.690234 0) scale(0.996264)"/>
      <use xlink:href="#CMR17-29" transform="translate(787.380712 0) scale(0.996264)"/>
     </g>
    </g>
    <g id="line2d_19">
     <path d="M 578.124026 49.10193 
L 593.124026 49.10193 
L 608.124026 49.10193 
" style="fill: none; stroke: #0571b0; stroke-width: 3; stroke-linecap: square"/>
    </g>
    <g id="text_8">
     <!-- MinMax(GroundTruth) -->
     <g transform="translate(620.124026 54.35193) scale(0.15 -0.15)">
      <defs>
       <path id="CMR17-47" d="M 3974 1233 
C 3974 1473 3994 1505 4390 1505 
L 4390 1670 
C 4237 1664 3891 1664 3718 1664 
C 3539 1664 3040 1664 2797 1664 
L 2797 1505 
L 2989 1505 
C 3539 1505 3552 1434 3552 1201 
L 3552 774 
C 3552 63 2720 63 2522 63 
C 1862 63 781 511 781 2160 
C 781 3808 1843 4250 2464 4250 
C 3187 4250 3712 3626 3834 2741 
C 3846 2664 3846 2651 3904 2651 
C 3974 2651 3974 2664 3974 2779 
L 3974 4288 
C 3974 4402 3968 4409 3930 4409 
C 3904 4409 3898 4402 3853 4326 
L 3571 3791 
C 3258 4187 2874 4416 2381 4416 
C 1286 4416 294 3456 294 2148 
C 294 845 1267 -128 2394 -128 
C 2912 -128 3418 56 3616 417 
C 3725 158 3904 -20 3936 -20 
C 3968 -20 3974 -13 3974 100 
L 3974 1233 
z
" transform="scale(0.015625)"/>
       <path id="CMR17-72" d="M 960 1497 
C 960 2112 1222 2688 1702 2688 
C 1747 2688 1792 2682 1837 2662 
C 1837 2662 1696 2617 1696 2452 
C 1696 2298 1818 2234 1914 2234 
C 1990 2234 2131 2279 2131 2458 
C 2131 2663 1926 2790 1709 2790 
C 1222 2790 1011 2317 947 2093 
L 941 2093 
L 941 2790 
L 198 2720 
L 198 2554 
C 576 2554 634 2515 634 2208 
L 634 428 
C 634 184 608 153 198 153 
L 198 -13 
C 352 0 646 0 813 0 
C 998 0 1325 0 1498 -13 
L 1498 153 
C 1037 153 960 153 960 440 
L 960 1497 
z
" transform="scale(0.015625)"/>
       <path id="CMR17-75" d="M 1882 2693 
L 1882 2528 
C 2259 2528 2317 2489 2317 2186 
L 2317 1032 
C 2317 500 2029 38 1555 38 
C 1030 38 986 348 986 678 
L 986 2763 
L 211 2693 
L 211 2528 
C 467 2528 640 2528 646 2274 
L 646 1058 
C 646 633 646 361 813 183 
C 896 101 1056 -64 1517 -64 
C 2061 -64 2272 377 2323 506 
L 2330 506 
L 2330 -63 
L 3091 -63 
L 3091 128 
C 2714 128 2656 166 2656 473 
L 2656 2763 
L 1882 2693 
z
" transform="scale(0.015625)"/>
       <path id="CMR17-64" d="M 1869 4326 
L 1869 4160 
C 2246 4160 2304 4122 2304 3820 
L 2304 2345 
C 2278 2377 2016 2790 1498 2790 
C 845 2790 211 2208 211 1364 
C 211 525 806 -64 1434 -64 
C 1978 -64 2259 337 2291 380 
L 2291 -63 
L 3066 -63 
L 3066 128 
C 2688 128 2630 166 2630 473 
L 2630 4396 
L 1869 4326 
z
M 2291 755 
C 2291 563 2176 390 2029 262 
C 1811 70 1594 38 1472 38 
C 1286 38 621 134 621 1356 
C 621 2612 1363 2688 1530 2688 
C 1824 2688 2061 2522 2208 2291 
C 2291 2157 2291 2138 2291 2023 
L 2291 755 
z
" transform="scale(0.015625)"/>
       <path id="CMR17-54" d="M 3981 4326 
L 288 4326 
L 179 2918 
L 294 2918 
C 378 3976 467 4160 1453 4160 
C 1568 4160 1754 4160 1805 4154 
C 1926 4135 1926 4058 1926 3912 
L 1926 459 
C 1926 230 1907 160 1376 160 
L 1197 160 
L 1197 0 
C 1504 0 1824 0 2138 0 
C 2451 0 2771 0 3078 0 
L 3078 160 
L 2899 160 
C 2368 160 2349 230 2349 459 
L 2349 3912 
C 2349 4052 2349 4129 2464 4154 
C 2515 4160 2701 4160 2816 4160 
C 3795 4160 3891 3976 3974 2918 
L 4090 2918 
L 3981 4326 
z
" transform="scale(0.015625)"/>
       <path id="CMR17-68" d="M 2656 1933 
C 2656 2259 2592 2790 1837 2790 
C 1312 2790 1056 2368 979 2157 
L 973 2157 
L 973 4396 
L 211 4326 
L 211 4160 
C 589 4160 646 4122 646 3817 
L 646 426 
C 646 184 621 153 211 153 
L 211 -13 
C 365 0 646 0 813 0 
C 979 0 1267 0 1421 -13 
L 1421 153 
C 1011 153 986 178 986 428 
L 986 1658 
C 986 2247 1344 2688 1792 2688 
C 2266 2688 2317 2266 2317 1958 
L 2317 428 
C 2317 184 2291 153 1882 153 
L 1882 -13 
C 2035 0 2317 0 2483 0 
C 2650 0 2938 0 3091 -13 
L 3091 153 
C 2682 153 2656 178 2656 428 
L 2656 1933 
z
" transform="scale(0.015625)"/>
      </defs>
      <use xlink:href="#CMR17-4d" transform="scale(0.996264)"/>
      <use xlink:href="#CMR17-69" transform="translate(84.686941 0) scale(0.996264)"/>
      <use xlink:href="#CMR17-6e" transform="translate(109.557999 0) scale(0.996264)"/>
      <use xlink:href="#CMR17-4d" transform="translate(160.453369 0) scale(0.996264)"/>
      <use xlink:href="#CMR17-61" transform="translate(245.140309 0) scale(0.996264)"/>
      <use xlink:href="#CMR17-78" transform="translate(290.830787 0) scale(0.996264)"/>
      <use xlink:href="#CMR17-28" transform="translate(339.123702 0) scale(0.996264)"/>
      <use xlink:href="#CMR17-47" transform="translate(374.40447 0) scale(0.996264)"/>
      <use xlink:href="#CMR17-72" transform="translate(446.759816 0) scale(0.996264)"/>
      <use xlink:href="#CMR17-6f" transform="translate(482.040584 0) scale(0.996264)"/>
      <use xlink:href="#CMR17-75" transform="translate(527.731061 0) scale(0.996264)"/>
      <use xlink:href="#CMR17-6e" transform="translate(578.626431 0) scale(0.996264)"/>
      <use xlink:href="#CMR17-64" transform="translate(629.521801 0) scale(0.996264)"/>
      <use xlink:href="#CMR17-54" transform="translate(680.41717 0) scale(0.996264)"/>
      <use xlink:href="#CMR17-72" transform="translate(739.119796 0) scale(0.996264)"/>
      <use xlink:href="#CMR17-75" transform="translate(774.400563 0) scale(0.996264)"/>
      <use xlink:href="#CMR17-74" transform="translate(825.295933 0) scale(0.996264)"/>
      <use xlink:href="#CMR17-68" transform="translate(860.576701 0) scale(0.996264)"/>
      <use xlink:href="#CMR17-29" transform="translate(911.472071 0) scale(0.996264)"/>
     </g>
    </g>
   </g>
  </g>
  <g id="axes_2">
   <g id="patch_8">
    <path d="M 58.42592 323.88737 
L 784.916238 323.88737 
L 784.916238 172.150768 
L 58.42592 172.150768 
z
" style="fill: #ffffff"/>
   </g>
   <g id="matplotlib.axis_3">
    <g id="xtick_6">
     <g id="line2d_20">
      <g>
       <use xlink:href="#m97f5e96795" x="58.42592" y="323.88737" style="stroke: #000000"/>
      </g>
     </g>
    </g>
    <g id="xtick_7">
     <g id="line2d_21">
      <g>
       <use xlink:href="#m97f5e96795" x="203.869427" y="323.88737" style="stroke: #000000"/>
      </g>
     </g>
    </g>
    <g id="xtick_8">
     <g id="line2d_22">
      <g>
       <use xlink:href="#m97f5e96795" x="349.312934" y="323.88737" style="stroke: #000000"/>
      </g>
     </g>
    </g>
    <g id="xtick_9">
     <g id="line2d_23">
      <g>
       <use xlink:href="#m97f5e96795" x="494.756441" y="323.88737" style="stroke: #000000"/>
      </g>
     </g>
    </g>
    <g id="xtick_10">
     <g id="line2d_24">
      <g>
       <use xlink:href="#m97f5e96795" x="640.199948" y="323.88737" style="stroke: #000000"/>
      </g>
     </g>
    </g>
    <g id="text_9">
     <!-- Steps -->
     <g transform="translate(400.335241 341.724366) scale(0.2 -0.2)">
      <defs>
       <path id="CMR17-70" d="M 1408 -1063 
C 998 -1063 973 -1037 973 -789 
L 973 402 
C 1158 134 1427 -38 1766 -38 
C 2406 -38 3053 523 3053 1388 
C 3053 2191 2496 2802 1837 2802 
C 1453 2802 1139 2592 960 2338 
L 960 2802 
L 198 2732 
L 198 2567 
C 576 2567 634 2528 634 2223 
L 634 -789 
C 634 -1031 608 -1063 198 -1063 
L 198 -1228 
C 352 -1216 634 -1216 800 -1216 
C 966 -1216 1254 -1216 1408 -1228 
L 1408 -1063 
z
M 973 2012 
C 973 2102 973 2235 1222 2471 
C 1254 2497 1472 2688 1792 2688 
C 2259 2688 2643 2108 2643 1382 
C 2643 656 2234 64 1728 64 
C 1498 64 1248 172 1056 472 
C 973 612 973 650 973 752 
L 973 2012 
z
" transform="scale(0.015625)"/>
      </defs>
      <use xlink:href="#CMR17-53" transform="scale(0.996264)"/>
      <use xlink:href="#CMR17-74" transform="translate(50.89537 0) scale(0.996264)"/>
      <use xlink:href="#CMR17-65" transform="translate(86.176138 0) scale(0.996264)"/>
      <use xlink:href="#CMR17-70" transform="translate(126.661798 0) scale(0.996264)"/>
      <use xlink:href="#CMR17-73" transform="translate(177.557168 0) scale(0.996264)"/>
     </g>
    </g>
   </g>
   <g id="matplotlib.axis_4">
    <g id="ytick_6">
     <g id="line2d_25">
      <g>
       <use xlink:href="#m4f3c1b06d7" x="58.42592" y="316.990251" style="stroke: #000000"/>
      </g>
     </g>
     <g id="text_10">
      <!-- $\mathdefault{0.00}$ -->
      <g transform="translate(28.91263 322.179114) scale(0.15 -0.15)">
       <use xlink:href="#CMR17-30" transform="scale(0.996264)"/>
       <use xlink:href="#CMMI12-3a" transform="translate(45.690477 0) scale(0.996264)"/>
       <use xlink:href="#CMR17-30" transform="translate(72.787654 0) scale(0.996264)"/>
       <use xlink:href="#CMR17-30" transform="translate(118.478131 0) scale(0.996264)"/>
      </g>
     </g>
    </g>
    <g id="ytick_7">
     <g id="line2d_26">
      <g>
       <use xlink:href="#m4f3c1b06d7" x="58.42592" y="282.50466" style="stroke: #000000"/>
      </g>
     </g>
     <g id="text_11">
      <!-- $\mathdefault{0.25}$ -->
      <g transform="translate(28.91263 287.693522) scale(0.15 -0.15)">
       <use xlink:href="#CMR17-30" transform="scale(0.996264)"/>
       <use xlink:href="#CMMI12-3a" transform="translate(45.690477 0) scale(0.996264)"/>
       <use xlink:href="#CMR17-32" transform="translate(72.787654 0) scale(0.996264)"/>
       <use xlink:href="#CMR17-35" transform="translate(118.478131 0) scale(0.996264)"/>
      </g>
     </g>
    </g>
    <g id="ytick_8">
     <g id="line2d_27">
      <g>
       <use xlink:href="#m4f3c1b06d7" x="58.42592" y="248.019069" style="stroke: #000000"/>
      </g>
     </g>
     <g id="text_12">
      <!-- $\mathdefault{0.50}$ -->
      <g transform="translate(28.91263 253.207931) scale(0.15 -0.15)">
       <use xlink:href="#CMR17-30" transform="scale(0.996264)"/>
       <use xlink:href="#CMMI12-3a" transform="translate(45.690477 0) scale(0.996264)"/>
       <use xlink:href="#CMR17-35" transform="translate(72.787654 0) scale(0.996264)"/>
       <use xlink:href="#CMR17-30" transform="translate(118.478131 0) scale(0.996264)"/>
      </g>
     </g>
    </g>
    <g id="ytick_9">
     <g id="line2d_28">
      <g>
       <use xlink:href="#m4f3c1b06d7" x="58.42592" y="213.533477" style="stroke: #000000"/>
      </g>
     </g>
     <g id="text_13">
      <!-- $\mathdefault{0.75}$ -->
      <g transform="translate(28.91263 218.72234) scale(0.15 -0.15)">
       <use xlink:href="#CMR17-30" transform="scale(0.996264)"/>
       <use xlink:href="#CMMI12-3a" transform="translate(45.690477 0) scale(0.996264)"/>
       <use xlink:href="#CMR17-37" transform="translate(72.787654 0) scale(0.996264)"/>
       <use xlink:href="#CMR17-35" transform="translate(118.478131 0) scale(0.996264)"/>
      </g>
     </g>
    </g>
    <g id="ytick_10">
     <g id="line2d_29">
      <g>
       <use xlink:href="#m4f3c1b06d7" x="58.42592" y="179.047886" style="stroke: #000000"/>
      </g>
     </g>
     <g id="text_14">
      <!-- $\mathdefault{1.00}$ -->
      <g transform="translate(28.91263 184.236749) scale(0.15 -0.15)">
       <use xlink:href="#CMR17-31" transform="scale(0.996264)"/>
       <use xlink:href="#CMMI12-3a" transform="translate(45.690477 0) scale(0.996264)"/>
       <use xlink:href="#CMR17-30" transform="translate(72.787654 0) scale(0.996264)"/>
       <use xlink:href="#CMR17-30" transform="translate(118.478131 0) scale(0.996264)"/>
      </g>
     </g>
    </g>
    <g id="text_15">
     <!-- Discretization -->
     <g transform="translate(21.036997 303.057403) rotate(-90) scale(0.2 -0.2)">
      <defs>
       <path id="CMR17-7a" d="M 2310 2605 
C 2362 2670 2362 2682 2362 2695 
C 2362 2752 2336 2752 2221 2752 
L 275 2752 
L 211 1760 
L 326 1760 
C 371 2381 442 2650 1178 2650 
L 1958 2650 
L 128 96 
C 128 0 134 0 269 0 
L 2291 0 
L 2381 1152 
L 2266 1152 
C 2214 442 2131 115 1350 115 
L 531 115 
L 2310 2605 
z
" transform="scale(0.015625)"/>
      </defs>
      <use xlink:href="#CMR17-44" transform="scale(0.996264)"/>
      <use xlink:href="#CMR17-69" transform="translate(70.393556 0) scale(0.996264)"/>
      <use xlink:href="#CMR17-73" transform="translate(95.264614 0) scale(0.996264)"/>
      <use xlink:href="#CMR17-63" transform="translate(131.065952 0) scale(0.996264)"/>
      <use xlink:href="#CMR17-72" transform="translate(171.551612 0) scale(0.996264)"/>
      <use xlink:href="#CMR17-65" transform="translate(206.83238 0) scale(0.996264)"/>
      <use xlink:href="#CMR17-74" transform="translate(247.318041 0) scale(0.996264)"/>
      <use xlink:href="#CMR17-69" transform="translate(282.598809 0) scale(0.996264)"/>
      <use xlink:href="#CMR17-7a" transform="translate(307.469867 0) scale(0.996264)"/>
      <use xlink:href="#CMR17-61" transform="translate(347.955527 0) scale(0.996264)"/>
      <use xlink:href="#CMR17-74" transform="translate(393.646005 0) scale(0.996264)"/>
      <use xlink:href="#CMR17-69" transform="translate(428.926772 0) scale(0.996264)"/>
      <use xlink:href="#CMR17-6f" transform="translate(453.797831 0) scale(0.996264)"/>
      <use xlink:href="#CMR17-6e" transform="translate(499.488308 0) scale(0.996264)"/>
     </g>
    </g>
   </g>
   <g id="line2d_30">
    <path d="M 58.42592 303.196015 
L 784.916238 303.196015 
L 784.916238 303.196015 
" clip-path="url(#pf7885d6e22)" style="fill: none; stroke: #000000; stroke-opacity: 0.15; stroke-linecap: square"/>
   </g>
   <g id="line2d_31">
    <path d="M 58.42592 275.607542 
L 784.916238 275.607542 
L 784.916238 275.607542 
" clip-path="url(#pf7885d6e22)" style="fill: none; stroke: #000000; stroke-opacity: 0.15; stroke-linecap: square"/>
   </g>
   <g id="line2d_32">
    <path d="M 58.42592 248.019069 
L 784.916238 248.019069 
L 784.916238 248.019069 
" clip-path="url(#pf7885d6e22)" style="fill: none; stroke: #000000; stroke-opacity: 0.15; stroke-linecap: square"/>
   </g>
   <g id="line2d_33">
    <path d="M 58.42592 220.430596 
L 784.916238 220.430596 
L 784.916238 220.430596 
" clip-path="url(#pf7885d6e22)" style="fill: none; stroke: #000000; stroke-opacity: 0.15; stroke-linecap: square"/>
   </g>
   <g id="line2d_34">
    <path d="M 58.42592 192.842123 
L 784.916238 192.842123 
L 784.916238 192.842123 
" clip-path="url(#pf7885d6e22)" style="fill: none; stroke: #000000; stroke-opacity: 0.15; stroke-linecap: square"/>
   </g>
   <g id="line2d_35">
    <path d="M 58.42592 261.813304 
L 60.607573 261.813304 
L 61.334791 289.401778 
L 62.062008 261.813304 
L 62.789226 289.401778 
L 63.516443 261.813304 
L 64.243661 261.813304 
L 64.970878 289.401778 
L 65.698096 261.813304 
L 66.425313 261.813304 
L 67.152531 289.401778 
L 72.243054 289.401778 
L 72.970271 261.813304 
L 73.697489 289.401778 
L 75.879141 289.401778 
L 76.606359 261.813304 
L 77.333576 289.401778 
L 110.058365 289.401778 
L 110.785583 316.990251 
L 111.5128 316.990251 
L 112.240018 289.401778 
L 112.967235 316.990251 
L 113.694453 316.990251 
L 114.421671 289.401778 
L 120.239411 289.401778 
L 120.966628 316.990251 
L 121.693846 289.401778 
L 126.057151 289.401778 
L 126.784369 316.990251 
L 127.511586 289.401778 
L 128.238804 289.401778 
L 128.966021 316.990251 
L 129.693239 316.990251 
L 130.420456 289.401778 
L 155.87307 289.401778 
L 156.600288 261.813304 
L 157.327505 289.401778 
L 158.054723 261.813304 
L 158.78194 289.401778 
L 163.145245 289.401778 
L 163.872463 261.813304 
L 164.59968 261.813304 
L 165.326898 289.401778 
L 166.054116 261.813304 
L 166.781333 289.401778 
L 167.508551 261.813304 
L 168.235768 261.813304 
L 168.962986 289.401778 
L 169.690203 261.813304 
L 170.417421 289.401778 
L 171.144638 261.813304 
L 171.871856 289.401778 
L 172.599073 261.813304 
L 173.326291 289.401778 
L 174.053508 289.401778 
L 174.780726 261.813304 
L 185.688989 261.813304 
L 186.416207 234.224829 
L 187.143424 261.813304 
L 194.415599 261.813304 
L 195.142817 234.224829 
L 197.32447 234.224829 
L 198.051687 261.813304 
L 199.506122 261.813304 
L 200.23334 234.224829 
L 218.413778 234.224829 
L 219.140996 206.636358 
L 219.868213 234.224829 
L 222.777083 234.224829 
L 223.504301 206.636358 
L 224.231518 206.636358 
L 224.958736 234.224829 
L 225.685953 234.224829 
L 226.413171 206.636358 
L 235.866999 206.636358 
L 236.594216 234.224829 
L 237.321434 206.636358 
L 256.956307 206.636358 
L 257.683525 179.047886 
L 258.410742 206.636358 
L 264.228483 206.636358 
L 264.9557 179.047886 
L 265.682918 179.047886 
L 266.410135 206.636358 
L 268.591788 206.636358 
L 269.319006 179.047886 
L 270.046223 206.636358 
L 272.227876 206.636358 
L 272.955093 179.047886 
L 273.682311 206.636358 
L 274.409528 179.047886 
L 276.591181 179.047886 
L 277.318398 206.636358 
L 278.045616 206.636358 
L 278.772833 179.047886 
L 279.500051 206.636358 
L 280.227269 179.047886 
L 280.954486 179.047886 
L 281.681704 206.636358 
L 282.408921 179.047886 
L 283.136139 179.047886 
L 283.863356 206.636358 
L 284.590574 179.047886 
L 285.317791 206.636358 
L 286.045009 179.047886 
L 286.772226 206.636358 
L 290.408314 206.636358 
L 291.135532 179.047886 
L 291.862749 206.636358 
L 292.589967 179.047886 
L 293.317184 206.636358 
L 295.498837 206.636358 
L 296.226054 179.047886 
L 296.953272 206.636358 
L 304.952665 206.636358 
L 305.679882 179.047886 
L 306.4071 206.636358 
L 310.043187 206.636358 
L 310.770405 234.224829 
L 311.497623 206.636358 
L 323.133103 206.636358 
L 323.860321 234.224829 
L 324.587538 206.636358 
L 329.678061 206.636358 
L 330.405278 234.224829 
L 331.132496 206.636358 
L 333.314149 206.636358 
L 334.041366 234.224829 
L 337.677454 234.224829 
L 338.404671 206.636358 
L 339.131889 234.224829 
L 340.586324 234.224829 
L 341.313541 206.636358 
L 342.040759 234.224829 
L 342.767977 206.636358 
L 343.495194 234.224829 
L 350.767369 234.224829 
L 351.494587 261.813304 
L 352.221805 234.224829 
L 354.403457 234.224829 
L 355.130675 261.813304 
L 355.857892 234.224829 
L 358.039545 234.224829 
L 358.766762 261.813304 
L 361.675632 261.813304 
L 362.40285 234.224829 
L 363.857285 234.224829 
L 364.584503 261.813304 
L 367.493373 261.813304 
L 368.22059 234.224829 
L 368.947808 261.813304 
L 378.401636 261.813304 
L 379.128853 289.401778 
L 379.856071 261.813304 
L 390.037116 261.813304 
L 390.764334 289.401778 
L 391.491551 261.813304 
L 392.218769 289.401778 
L 397.309292 289.401778 
L 398.036509 261.813304 
L 398.763727 289.401778 
L 401.672597 289.401778 
L 402.399814 261.813304 
L 403.127032 289.401778 
L 408.944772 289.401778 
L 409.67199 261.813304 
L 410.399207 289.401778 
L 424.21634 289.401778 
L 424.943558 316.990251 
L 425.670776 289.401778 
L 426.397993 316.990251 
L 427.125211 289.401778 
L 427.852428 316.990251 
L 428.579646 289.401778 
L 430.034081 289.401778 
L 430.761298 316.990251 
L 431.488516 289.401778 
L 435.124603 289.401778 
L 435.851821 316.990251 
L 436.579039 289.401778 
L 437.306256 289.401778 
L 438.033474 316.990251 
L 438.760691 316.990251 
L 439.487909 289.401778 
L 441.669561 289.401778 
L 442.396779 316.990251 
L 443.123996 289.401778 
L 443.851214 316.990251 
L 444.578431 289.401778 
L 446.760084 289.401778 
L 447.487302 316.990251 
L 448.214519 289.401778 
L 450.396172 289.401778 
L 451.123389 316.990251 
L 451.850607 289.401778 
L 452.577824 316.990251 
L 453.305042 289.401778 
L 456.94113 289.401778 
L 457.668347 316.990251 
L 458.395565 289.401778 
L 459.122782 289.401778 
L 459.85 316.990251 
L 460.577217 289.401778 
L 482.393743 289.401778 
L 483.120961 261.813304 
L 484.575396 261.813304 
L 485.302613 289.401778 
L 488.938701 289.401778 
L 489.665919 261.813304 
L 490.393136 261.813304 
L 491.120354 289.401778 
L 491.847571 261.813304 
L 492.574789 261.813304 
L 493.302006 289.401778 
L 494.029224 261.813304 
L 494.756441 289.401778 
L 495.483659 289.401778 
L 496.210876 261.813304 
L 497.665312 261.813304 
L 498.392529 289.401778 
L 499.119747 261.813304 
L 507.119139 261.813304 
L 507.846357 234.224829 
L 508.573575 261.813304 
L 509.300792 234.224829 
L 510.02801 261.813304 
L 515.118532 261.813304 
L 515.84575 234.224829 
L 516.572967 234.224829 
L 517.300185 261.813304 
L 518.027402 234.224829 
L 518.75462 234.224829 
L 519.481838 261.813304 
L 520.209055 234.224829 
L 522.390708 234.224829 
L 523.117925 261.813304 
L 523.845143 234.224829 
L 529.662883 234.224829 
L 530.390101 261.813304 
L 531.117318 234.224829 
L 540.571146 234.224829 
L 541.298364 206.636358 
L 542.025581 206.636358 
L 542.752799 234.224829 
L 543.480016 206.636358 
L 544.207234 206.636358 
L 544.934451 234.224829 
L 545.661669 234.224829 
L 546.388886 206.636358 
L 547.116104 234.224829 
L 547.843321 206.636358 
L 548.570539 206.636358 
L 549.297756 234.224829 
L 550.024974 206.636358 
L 550.752192 234.224829 
L 551.479409 206.636358 
L 552.206627 206.636358 
L 552.933844 234.224829 
L 553.661062 234.224829 
L 554.388279 206.636358 
L 555.115497 206.636358 
L 555.842714 234.224829 
L 556.569932 206.636358 
L 568.205412 206.636358 
L 568.93263 234.224829 
L 570.387065 179.047886 
L 571.114283 206.636358 
L 575.477588 206.636358 
L 576.204805 179.047886 
L 576.932023 206.636358 
L 582.749763 206.636358 
L 583.476981 179.047886 
L 584.204198 206.636358 
L 584.931416 206.636358 
L 585.658633 179.047886 
L 586.385851 206.636358 
L 592.930809 206.636358 
L 593.658026 179.047886 
L 594.385244 206.636358 
L 595.112461 179.047886 
L 595.839679 206.636358 
L 597.294114 206.636358 
L 598.021331 179.047886 
L 598.748549 179.047886 
L 599.475766 206.636358 
L 600.930201 206.636358 
L 601.657419 179.047886 
L 602.384637 206.636358 
L 603.111854 179.047886 
L 603.839072 179.047886 
L 604.566289 206.636358 
L 606.020724 206.636358 
L 606.747942 179.047886 
L 608.202377 179.047886 
L 608.929594 206.636358 
L 610.384029 206.636358 
L 611.111247 179.047886 
L 611.838464 206.636358 
L 612.565682 206.636358 
L 613.2929 179.047886 
L 614.020117 206.636358 
L 614.747335 179.047886 
L 616.928987 179.047886 
L 617.656205 206.636358 
L 621.292292 206.636358 
L 622.01951 179.047886 
L 622.746728 206.636358 
L 624.201163 206.636358 
L 624.92838 179.047886 
L 625.655598 206.636358 
L 639.472731 206.636358 
L 640.199948 234.224829 
L 640.927166 206.636358 
L 647.472124 206.636358 
L 648.199341 234.224829 
L 648.926559 206.636358 
L 651.835429 206.636358 
L 652.562646 234.224829 
L 653.289864 206.636358 
L 654.017082 234.224829 
L 654.744299 206.636358 
L 655.471517 234.224829 
L 656.925952 234.224829 
L 657.653169 206.636358 
L 659.107604 206.636358 
L 659.834822 234.224829 
L 677.288043 234.224829 
L 678.01526 261.813304 
L 678.742478 234.224829 
L 679.469695 234.224829 
L 680.196913 261.813304 
L 680.92413 261.813304 
L 681.651348 234.224829 
L 682.378565 234.224829 
L 683.105783 261.813304 
L 683.833 234.224829 
L 684.560218 261.813304 
L 685.287436 261.813304 
L 686.014653 234.224829 
L 686.741871 261.813304 
L 688.196306 261.813304 
L 688.923523 234.224829 
L 689.650741 261.813304 
L 690.377958 234.224829 
L 691.105176 261.813304 
L 694.014046 261.813304 
L 694.741263 234.224829 
L 695.468481 261.813304 
L 705.649527 261.813304 
L 706.376744 289.401778 
L 707.103962 261.813304 
L 707.831179 289.401778 
L 708.558397 261.813304 
L 709.285614 289.401778 
L 710.012832 261.813304 
L 710.740049 289.401778 
L 711.467267 289.401778 
L 712.194484 261.813304 
L 712.921702 261.813304 
L 713.648919 289.401778 
L 715.103354 289.401778 
L 715.830572 261.813304 
L 716.55779 261.813304 
L 717.285007 289.401778 
L 719.46666 289.401778 
L 720.193877 261.813304 
L 720.921095 289.401778 
L 723.102747 289.401778 
L 723.829965 261.813304 
L 724.557182 289.401778 
L 728.920488 289.401778 
L 729.647705 316.990251 
L 730.374923 289.401778 
L 736.192663 289.401778 
L 736.919881 316.990251 
L 737.647098 289.401778 
L 738.374316 289.401778 
L 739.101533 261.813304 
L 739.828751 289.401778 
L 750.009796 289.401778 
L 750.737014 316.990251 
L 751.464231 289.401778 
L 752.191449 289.401778 
L 752.918666 316.990251 
L 753.645884 289.401778 
L 755.100319 289.401778 
L 755.827536 316.990251 
L 756.554754 289.401778 
L 765.281364 289.401778 
L 766.008582 316.990251 
L 766.735799 289.401778 
L 771.099105 289.401778 
L 771.826322 316.990251 
L 772.55354 289.401778 
L 773.280757 316.990251 
L 774.007975 289.401778 
L 779.098498 289.401778 
L 779.825715 316.990251 
L 780.552933 289.401778 
L 781.28015 316.990251 
L 782.007368 289.401778 
L 784.916238 289.401778 
L 784.916238 289.401778 
" clip-path="url(#pf7885d6e22)" style="fill: none; stroke: #92c5de; stroke-width: 2; stroke-linecap: square"/>
   </g>
   <g id="line2d_36">
    <path d="M 58.42592 261.813304 
L 68.606966 261.813304 
L 69.334183 289.401778 
L 166.781333 289.401778 
L 167.508551 261.813304 
L 196.597252 261.813304 
L 197.32447 234.224829 
L 224.958736 234.224829 
L 225.685953 206.636358 
L 332.586931 206.636358 
L 333.314149 234.224829 
L 360.948415 234.224829 
L 361.675632 261.813304 
L 390.764334 261.813304 
L 391.491551 289.401778 
L 488.938701 289.401778 
L 489.665919 261.813304 
L 518.027402 261.813304 
L 518.75462 234.224829 
L 547.116104 234.224829 
L 547.843321 206.636358 
L 654.017082 206.636358 
L 654.744299 234.224829 
L 683.105783 234.224829 
L 683.833 261.813304 
L 712.194484 261.813304 
L 712.921702 289.401778 
L 784.916238 289.401778 
L 784.916238 289.401778 
" clip-path="url(#pf7885d6e22)" style="fill: none; stroke: #0571b0; stroke-width: 3; stroke-linecap: square"/>
   </g>
   <g id="patch_9">
    <path d="M 58.42592 323.88737 
L 58.42592 172.150768 
" style="fill: none; stroke: #000000; stroke-width: 0.8; stroke-linejoin: miter; stroke-linecap: square"/>
   </g>
   <g id="patch_10">
    <path d="M 784.916238 323.88737 
L 784.916238 172.150768 
" style="fill: none; stroke: #000000; stroke-width: 0.8; stroke-linejoin: miter; stroke-linecap: square"/>
   </g>
   <g id="patch_11">
    <path d="M 58.42592 323.88737 
L 784.916238 323.88737 
" style="fill: none; stroke: #000000; stroke-width: 0.8; stroke-linejoin: miter; stroke-linecap: square"/>
   </g>
   <g id="patch_12">
    <path d="M 58.42592 172.150768 
L 784.916238 172.150768 
" style="fill: none; stroke: #000000; stroke-width: 0.8; stroke-linejoin: miter; stroke-linecap: square"/>
   </g>
   <g id="legend_2">
    <g id="patch_13">
     <path d="M 570.848433 229.038688 
L 774.416238 229.038688 
Q 777.416238 229.038688 777.416238 226.038688 
L 777.416238 182.650768 
Q 777.416238 179.650768 774.416238 179.650768 
L 570.848433 179.650768 
Q 567.848433 179.650768 567.848433 182.650768 
L 567.848433 226.038688 
Q 567.848433 229.038688 570.848433 229.038688 
z
" style="fill: #ffffff; opacity: 0.8; stroke: #cccccc; stroke-linejoin: miter"/>
    </g>
    <g id="line2d_37">
     <path d="M 573.848433 191.608738 
L 588.848433 191.608738 
L 603.848433 191.608738 
" style="fill: none; stroke: #92c5de; stroke-width: 2; stroke-linecap: square"/>
    </g>
    <g id="text_16">
     <!-- Rounding(NoiseData) -->
     <g transform="translate(615.848433 196.858738) scale(0.15 -0.15)">
      <defs>
       <path id="CMR17-52" d="M 2509 2146 
C 3117 2268 3629 2676 3629 3186 
C 3629 3785 2950 4326 2054 4326 
L 333 4326 
L 333 4160 
C 774 4160 845 4160 845 3873 
L 845 415 
C 845 128 774 128 333 128 
L 333 -26 
C 518 -26 851 -26 1050 -26 
C 1248 -26 1581 -26 1766 -26 
L 1766 128 
C 1325 128 1254 128 1254 417 
L 1254 2112 
L 2003 2112 
C 2368 2112 2573 1964 2662 1881 
C 2918 1632 2918 1459 2918 1024 
C 2918 595 2918 377 3110 160 
C 3354 -102 3680 -128 3821 -128 
C 4294 -128 4365 396 4365 503 
C 4365 540 4365 585 4307 585 
C 4256 585 4250 547 4250 522 
C 4218 112 4032 -26 3834 -26 
C 3482 -26 3443 375 3405 764 
C 3386 898 3373 993 3360 1133 
C 3322 1452 3270 1917 2509 2146 
z
M 1984 2214 
L 1254 2214 
L 1254 3913 
C 1254 4129 1267 4160 1523 4160 
L 1990 4160 
C 2522 4160 3142 3977 3142 3190 
C 3142 2372 2464 2214 1984 2214 
z
" transform="scale(0.015625)"/>
      </defs>
      <use xlink:href="#CMR17-52" transform="scale(0.996264)"/>
      <use xlink:href="#CMR17-6f" transform="translate(67.791102 0) scale(0.996264)"/>
      <use xlink:href="#CMR17-75" transform="translate(113.481579 0) scale(0.996264)"/>
      <use xlink:href="#CMR17-6e" transform="translate(164.376949 0) scale(0.996264)"/>
      <use xlink:href="#CMR17-64" transform="translate(215.272319 0) scale(0.996264)"/>
      <use xlink:href="#CMR17-69" transform="translate(266.167688 0) scale(0.996264)"/>
      <use xlink:href="#CMR17-6e" transform="translate(291.038747 0) scale(0.996264)"/>
      <use xlink:href="#CMR17-67" transform="translate(341.934117 0) scale(0.996264)"/>
      <use xlink:href="#CMR17-28" transform="translate(387.624594 0) scale(0.996264)"/>
      <use xlink:href="#CMR17-4e" transform="translate(422.905362 0) scale(0.996264)"/>
      <use xlink:href="#CMR17-6f" transform="translate(491.977791 0) scale(0.996264)"/>
      <use xlink:href="#CMR17-69" transform="translate(537.668269 0) scale(0.996264)"/>
      <use xlink:href="#CMR17-73" transform="translate(562.539327 0) scale(0.996264)"/>
      <use xlink:href="#CMR17-65" transform="translate(598.340665 0) scale(0.996264)"/>
      <use xlink:href="#CMR17-44" transform="translate(638.826325 0) scale(0.996264)"/>
      <use xlink:href="#CMR17-61" transform="translate(709.219881 0) scale(0.996264)"/>
      <use xlink:href="#CMR17-74" transform="translate(754.910358 0) scale(0.996264)"/>
      <use xlink:href="#CMR17-61" transform="translate(790.191126 0) scale(0.996264)"/>
      <use xlink:href="#CMR17-29" transform="translate(835.881603 0) scale(0.996264)"/>
     </g>
    </g>
    <g id="line2d_38">
     <path d="M 573.848433 214.052698 
L 588.848433 214.052698 
L 603.848433 214.052698 
" style="fill: none; stroke: #0571b0; stroke-width: 3; stroke-linecap: square"/>
    </g>
    <g id="text_17">
     <!-- Rounding(Groundtruth) -->
     <g transform="translate(615.848433 219.302698) scale(0.15 -0.15)">
      <use xlink:href="#CMR17-52" transform="scale(0.996264)"/>
      <use xlink:href="#CMR17-6f" transform="translate(67.791102 0) scale(0.996264)"/>
      <use xlink:href="#CMR17-75" transform="translate(113.481579 0) scale(0.996264)"/>
      <use xlink:href="#CMR17-6e" transform="translate(164.376949 0) scale(0.996264)"/>
      <use xlink:href="#CMR17-64" transform="translate(215.272319 0) scale(0.996264)"/>
      <use xlink:href="#CMR17-69" transform="translate(266.167688 0) scale(0.996264)"/>
      <use xlink:href="#CMR17-6e" transform="translate(291.038747 0) scale(0.996264)"/>
      <use xlink:href="#CMR17-67" transform="translate(341.934117 0) scale(0.996264)"/>
      <use xlink:href="#CMR17-28" transform="translate(387.624594 0) scale(0.996264)"/>
      <use xlink:href="#CMR17-47" transform="translate(422.905362 0) scale(0.996264)"/>
      <use xlink:href="#CMR17-72" transform="translate(495.260708 0) scale(0.996264)"/>
      <use xlink:href="#CMR17-6f" transform="translate(530.541475 0) scale(0.996264)"/>
      <use xlink:href="#CMR17-75" transform="translate(576.231952 0) scale(0.996264)"/>
      <use xlink:href="#CMR17-6e" transform="translate(627.127322 0) scale(0.996264)"/>
      <use xlink:href="#CMR17-64" transform="translate(678.022692 0) scale(0.996264)"/>
      <use xlink:href="#CMR17-74" transform="translate(728.918062 0) scale(0.996264)"/>
      <use xlink:href="#CMR17-72" transform="translate(764.19883 0) scale(0.996264)"/>
      <use xlink:href="#CMR17-75" transform="translate(799.479597 0) scale(0.996264)"/>
      <use xlink:href="#CMR17-74" transform="translate(850.374967 0) scale(0.996264)"/>
      <use xlink:href="#CMR17-68" transform="translate(885.655735 0) scale(0.996264)"/>
      <use xlink:href="#CMR17-29" transform="translate(936.551105 0) scale(0.996264)"/>
     </g>
    </g>
   </g>
  </g>
 </g>
 <defs>
  <clipPath id="p10007b494b">
   <rect x="58.42592" y="7.2" width="726.490317" height="151.736602"/>
  </clipPath>
  <clipPath id="pf7885d6e22">
   <rect x="58.42592" y="172.150768" width="726.490317" height="151.736602"/>
  </clipPath>
 </defs>
</svg>
